<svg width="131" height="160" viewBox="0 0 131 160" fill="none" xmlns="http://www.w3.org/2000/svg">
<path d="M31.5667 51.9229H14.7439L11.5456 61.5385H1.34326L18.6777 14.8718H27.5689L44.9993 61.5385H34.7969L31.5667 51.9229ZM17.3345 44.1346H28.9761L23.1233 26.6667L17.3345 44.1346ZM49.3489 61.5385V14.8718H65.6601C71.3103 14.8718 75.5956 15.9615 78.5169 18.141C81.4378 20.2992 82.8984 23.4722 82.8984 27.6603C82.8984 29.9466 82.3122 31.9658 81.1393 33.7179C79.9669 35.4487 78.3355 36.7201 76.2461 37.5321C78.634 38.1303 80.5106 39.3376 81.875 41.1536C83.2607 42.9703 83.9538 45.1922 83.9538 47.8203C83.9538 52.3077 82.5255 55.705 79.6681 58.0127C76.811 60.3204 72.7386 61.4958 67.4511 61.5385H49.3489ZM58.9435 41.218V53.8142H67.1629C69.423 53.8142 71.1821 53.28 72.4401 52.2117C73.7194 51.1216 74.3593 49.6263 74.3593 47.7243C74.3593 43.4507 72.1523 41.282 67.7389 41.218H58.9435ZM58.9435 34.4231H66.0436C70.8837 34.3376 73.3035 32.4039 73.3035 28.6218C73.3035 26.5064 72.6854 24.9893 71.4486 24.0705C70.2332 23.1303 68.3038 22.6603 65.6601 22.6603H58.9435V34.4231ZM127.738 45.9934C127.375 51.015 125.521 54.9678 122.173 57.8527C118.846 60.7372 114.454 62.1793 108.996 62.1793C103.026 62.1793 98.3245 60.1711 94.8919 56.1538C91.4806 52.1153 89.7747 46.5813 89.7747 39.5513V36.6987C89.7747 32.2115 90.5636 28.2585 92.1413 24.8398C93.719 21.4209 95.9686 18.8034 98.8894 16.9872C101.832 15.1496 105.243 14.2308 109.124 14.2308C114.497 14.2308 118.825 15.6731 122.109 18.5577C125.392 21.4423 127.29 25.4914 127.802 30.7051H118.207C117.972 27.6923 117.13 25.5128 115.68 24.1666C114.252 22.7991 112.066 22.1154 109.124 22.1154C105.926 22.1154 103.527 23.2692 101.928 25.5769C100.35 27.8633 99.5399 31.4209 99.4974 36.25V39.7756C99.4974 44.8185 100.254 48.5042 101.768 50.8332C103.303 53.1623 105.712 54.327 108.996 54.327C111.96 54.327 114.167 53.6537 115.617 52.3077C117.088 50.9403 117.93 48.8353 118.143 45.9934H127.738Z" fill="#555555"/>
<path d="M40.6978 98.5177H27.1692L24.3388 106.667H18.0303L31.223 71.6669H36.668L49.8846 106.667H43.5523L40.6978 98.5177ZM28.8723 93.6139H38.9947L33.9335 79.0946L28.8723 93.6139ZM53.8666 106.667V71.6669H65.8359C69.7859 71.6669 72.792 72.4599 74.8552 74.0464C76.918 75.6328 77.9493 77.9967 77.9493 81.1376C77.9493 82.7405 77.5174 84.1826 76.654 85.4646C75.7906 86.7467 74.5273 87.7403 72.864 88.4455C74.7512 88.9584 76.2061 89.9278 77.2296 91.3543C78.269 92.7643 78.7889 94.4632 78.7889 96.4505C78.7889 99.7354 77.7335 102.26 75.6228 104.023C73.5276 105.785 70.5216 106.667 66.6034 106.667H53.8666ZM59.9351 90.8734V101.811H66.6755C68.5787 101.811 70.0655 101.338 71.1373 100.393C72.2086 99.447 72.7441 98.1329 72.7441 96.4505C72.7441 92.8123 70.8892 90.9534 67.1794 90.8734H59.9351ZM59.9351 86.4021H65.8842C67.771 86.4021 69.2423 85.9774 70.2976 85.1282C71.369 84.263 71.9048 83.0449 71.9048 81.4745C71.9048 79.7436 71.4091 78.4935 70.4176 77.7243C69.442 76.9551 67.9147 76.5707 65.8359 76.5707H59.9351V86.4021ZM111.507 95.2726C111.155 99.0064 109.78 101.923 107.381 104.023C104.982 106.106 101.792 107.147 97.8105 107.147C95.028 107.147 92.5734 106.49 90.4467 105.176C88.3355 103.846 86.7046 101.963 85.553 99.5274C84.4018 97.0913 83.8021 94.263 83.7542 91.0416V87.7723C83.7542 84.471 84.338 81.5627 85.5051 79.0466C86.6726 76.5305 88.3437 74.5912 90.5183 73.2291C92.7093 71.8671 95.2359 71.1861 98.0983 71.1861C101.952 71.1861 105.054 72.2355 107.405 74.3348C109.756 76.4345 111.123 79.399 111.507 83.2291H105.462C105.174 80.713 104.439 78.9022 103.256 77.7965C102.088 76.6749 100.369 76.1136 98.0983 76.1136C95.4599 76.1136 93.429 77.0835 92.0056 79.0224C90.5985 80.9456 89.8789 83.7739 89.8469 87.5081V90.6088C89.8469 94.391 90.5183 97.2755 91.8619 99.2628C93.221 101.25 95.204 102.244 97.8105 102.244C100.193 102.244 101.984 101.707 103.184 100.633C104.383 99.5594 105.142 97.7723 105.462 95.2726H111.507Z" fill="#555555"/>
<path d="M45.5112 140.08H33.3179L30.5794 147.692H26.6216L37.7355 118.526H41.0937L52.2275 147.692H48.2897L45.5112 140.08ZM34.4773 136.915H44.372L39.4145 123.273L34.4773 136.915ZM56.1452 147.692V118.526H65.6603C68.8182 118.526 71.1905 119.18 72.776 120.489C74.3755 121.798 75.175 123.734 75.175 126.298C75.175 127.66 74.7885 128.869 74.0156 129.924C73.2427 130.966 72.1898 131.774 70.8573 132.348C72.4297 132.789 73.6689 133.63 74.5752 134.872C75.4947 136.101 75.9544 137.57 75.9544 139.279C75.9544 141.896 75.1082 143.953 73.4159 145.449C71.7235 146.944 69.3316 147.692 66.24 147.692H56.1452ZM59.9831 134.05V144.547H66.3198C68.1055 144.547 69.5113 144.087 70.5376 143.165C71.577 142.23 72.0965 140.948 72.0965 139.319C72.0965 135.807 70.1908 134.05 66.3796 134.05H59.9831ZM59.9831 130.966H65.7802C67.4591 130.966 68.7986 130.545 69.7978 129.703C70.8106 128.862 71.317 127.72 71.317 126.278C71.317 124.675 70.8507 123.513 69.9178 122.793C68.9848 122.058 67.5659 121.691 65.6603 121.691H59.9831V130.966ZM103.06 138.437C102.7 141.522 101.56 143.906 99.6413 145.589C97.7356 147.258 95.1971 148.093 92.0257 148.093C88.5873 148.093 85.829 146.857 83.7502 144.387C81.6849 141.916 80.652 138.611 80.652 134.471V131.667C80.652 128.955 81.1318 126.572 82.091 124.515C83.064 122.459 84.4367 120.883 86.2089 119.787C87.981 118.679 90.0332 118.125 92.3654 118.125C95.457 118.125 97.9358 118.993 99.8013 120.729C101.667 122.452 102.753 124.842 103.06 127.901H99.2016C98.8684 125.577 98.1421 123.894 97.0229 122.853C95.9168 121.811 94.3644 121.29 92.3654 121.29C89.9133 121.29 87.988 122.198 86.5888 124.014C85.2026 125.831 84.51 128.415 84.51 131.767V134.591C84.51 137.756 85.1695 140.274 86.4889 142.144C87.8079 144.013 89.6537 144.948 92.0257 144.948C94.1577 144.948 95.7903 144.467 96.923 143.506C98.0689 142.531 98.8287 140.841 99.2016 138.437H103.06Z" fill="#555555"/>
</svg>
