<svg width="34" height="34" viewBox="0 0 34 34" fill="none" xmlns="http://www.w3.org/2000/svg">
<rect width="34" height="34" rx="5" fill="#279440"/>
<path d="M9.56563 17.5694C9.25049 17.5694 9 17.3109 9 16.9959C9 16.681 9.25049 16.4306 9.56563 16.4306H16.426V9.57346C16.4265 9.25849 16.6851 9 17.0003 9C17.3154 9 17.5659 9.25849 17.5659 9.57346V16.4306H24.4262C24.7414 16.4306 25 16.681 25 16.9959C25 17.3109 24.7414 17.5694 24.4262 17.5694H17.5659V24.4265C17.5659 24.7415 17.3154 25 17.0003 25C16.6851 25 16.4265 24.7415 16.4265 24.4265V17.5694H9.56563Z" fill="white"/>
</svg>
