<?xml version="1.0" encoding="UTF-8"?>
<svg enable-background="new 0 0 480 480" version="1.1" viewBox="0 0 480 480" fill="#808080" xml:space="preserve" xmlns="http://www.w3.org/2000/svg">
		<path d="m472 96h-8v-40c0-4.418-3.582-8-8-8h-24v-40c0-4.418-3.582-8-8-8h-80c-4.418 0-8 3.582-8 8v40h-192v-40c0-4.418-3.582-8-8-8h-80c-4.418 0-8 3.582-8 8v40h-24c-4.418 0-8 3.582-8 8v40h-8c-4.418 0-8 3.582-8 8v32c0 4.418 3.582 8 8 8h8v328c0 4.418 3.582 8 8 8h432c4.418 0 8-3.582 8-8v-328h8c4.418 0 8-3.582 8-8v-32c0-4.418-3.582-8-8-8zm-120-80h64v32h-64v-32zm-288 0h64v32h-64v-32zm-32 48h416v32h-416v-32zm416 400h-416v-320h416v320zm16-336h-448v-16h448v16z"/>
		<path d="m325.18 257.89c-1.449-1.223-3.286-1.892-5.183-1.887h-50.4l33.392-60.12c2.143-3.864 0.748-8.733-3.116-10.876-1.186-0.658-2.52-1.003-3.876-1.004h-80c-2.808 1e-3 -5.41 1.473-6.856 3.88l-72 120c-1.486 2.473-1.526 5.554-0.104 8.064 1.42 2.507 4.079 4.056 6.96 4.056h69.168l-28.8 93.648c-1.307 4.22 1.054 8.702 5.275 10.009 3.076 0.953 6.423-0.031 8.493-2.497l128-152c2.85-3.376 2.423-8.424-0.953-11.273zm-113.98 122.91l20.44-66.4c1.326-4.215-1.017-8.706-5.232-10.031-0.779-0.245-1.592-0.369-2.409-0.368h-65.872l62.4-104h61.873l-33.392 60.12c-2.143 3.864-0.748 8.733 3.116 10.876 1.186 0.658 2.52 1.003 3.876 1.004h46.808l-91.608 108.8z"/>
		<path d="m96 160c-26.51 0-48 21.49-48 48 0.026 26.499 21.501 47.974 48 48 26.51 0 48-21.49 48-48s-21.49-48-48-48zm0 80c-17.673 0-32-14.327-32-32s14.327-32 32-32 32 14.327 32 32-14.327 32-32 32z"/>
		<path d="m384 160c-26.51 0-48 21.49-48 48 0.026 26.499 21.501 47.974 48 48 26.51 0 48-21.49 48-48s-21.49-48-48-48zm0 80c-17.673 0-32-14.327-32-32s14.327-32 32-32 32 14.327 32 32-14.327 32-32 32z"/>
		<rect x="80" y="200" width="32" height="16"/>
		<polygon points="392 200 392 192 376 192 376 200 368 200 368 216 376 216 376 224 392 224 392 216 400 216 400 200"/>
</svg>
