<?xml version="1.0" encoding="UTF-8"?>
<svg enable-background="new 0 0 512.004 512.004" version="1.1" viewBox="0 0 512.004 512.004" fill="#808080" xml:space="preserve" xmlns="http://www.w3.org/2000/svg">
			<path d="m506.62 235.88l-289.28-165.45c-22.313-12.782-52.854-5.891-67.563 15.159l-56.041 80.114c-5.5 7.872-8.406 17.099-8.406 26.701 0 16.588 8.917 32.039 23.26 40.317l61.01 35.233-11.021 14.707c-5.969 7.955-9.25 17.818-9.25 27.765 0 10.229 3.746 19.851 9.78 27.805l-16.238 24.433h-78.875v-32.105c0-5.901-4.771-10.561-10.667-10.561h-42.666c-5.896 0-10.667 4.66-10.667 10.561v106.76c0 5.901 4.771 10.676 10.667 10.676h42.667c5.896 0 10.667-4.775 10.667-10.676v-10.657h78.875c21.448 0 41.354-10.654 53.25-28.513l17.484-26.25c3.367 0.731 6.763 1.394 10.234 1.394 16.979 0 32.958-9.05 41.688-23.625l11.72-19.551 90.78 52.425c1.635 0.949 3.479 1.428 5.333 1.428 1.031 0 2.063-0.146 3.073-0.448 2.813-0.855 5.156-2.826 6.469-5.453l7.897-15.829c1.296 0.098 2.543 0.378 3.863 0.378 41.167 0 74.667-33.53 74.667-74.734 0-4.525-0.668-9.188-1.661-13.955l38.432-19.231c3.521-1.762 5.781-5.317 5.896-9.258 0.103-3.933-1.959-7.613-5.376-9.563zm-463.96 190.78h-21.334v-85.333h21.333v85.333zm135.71-40.302c-7.927 11.896-21.198 19-35.5 19h-78.875v-21.333h78.875c7.167 0 13.802-3.552 17.75-9.5l14.771-22.164 18.318 10.988-15.339 23.009zm68.865-47.584c-7.458 12.406-25.01 16.823-37.427 9.354l-27.052-16.229c-7.458-4.469-12.094-12.656-12.094-21.354 0-5.354 1.771-10.656 4.979-14.948l12.564-16.751 70.56 40.711-11.53 19.217zm121.64 19.688l-249.64-144.03c-7.76-4.479-12.583-12.833-12.583-21.802 0-5.198 1.573-10.188 4.552-14.448l26.781-38.25 263.97 152.28-33.082 66.248zm32.735-17.808l22.328-44.714 23.695-11.846c0.119 1.309 0.357 2.664 0.357 3.93 0 27.025-20.283 49.18-46.38 52.63zm14.742-64.769l-266.08-153.5 16.977-24.246c5.615-8.021 14.802-12.813 24.594-12.813 5.219 0 10.375 1.365 14.906 3.958l271.98 155.42-62.378 31.184z"/>
			<circle cx="352" cy="309.34" r="10.667"/>
</svg>
