<svg width="48" height="32" viewBox="0 0 48 32" fill="none" xmlns="http://www.w3.org/2000/svg">
  <path d="M39.6866 13.6316C39.5958 6.76395 34.0079 1 27.1189 1C22.7303 1 18.6092 3.37237 16.3339 6.79158C15.3345 6.12605 14.1337 5.73684 12.8421 5.73684C9.35421 5.73684 6.52632 8.56474 6.52632 12.0526C6.52632 12.1734 6.53737 12.2911 6.54447 12.4111C6.53658 12.5547 6.52632 12.7 6.52632 12.8421C3.37789 14.3516 1 17.9397 1 21.6487C1 26.7921 5.2079 31 10.3513 31H29.6989C29.8079 31 29.9137 30.9874 30.0211 30.9834C30.1292 30.9874 30.235 31 30.3439 31H38.0832C42.8713 31 46.7895 27.0818 46.7895 22.2937C46.7895 18.0534 43.7153 14.3903 39.6866 13.6316Z" fill="#D2D2D2" stroke="#BEBEBE" stroke-miterlimit="10" stroke-linecap="round"/>
  <path d="M39.6866 13.6316C39.6866 13.6316 37.6852 13.3355 35.7368 13.6316Z" fill="#BEBEBE"/>
  <path d="M39.6866 13.6316C39.6866 13.6316 37.6852 13.3355 35.7368 13.6316" stroke="#BEBEBE" stroke-miterlimit="10" stroke-linecap="round"/>
  <path d="M6.52637 12.0526C6.52637 8.56471 9.35426 5.73682 12.8422 5.73682C16.3301 5.73682 19.1579 8.56471 19.1579 12.0526" fill="#D2D2D2"/>
  <path d="M6.52637 12.0526C6.52637 8.56471 9.35426 5.73682 12.8422 5.73682C16.3301 5.73682 19.1579 8.56471 19.1579 12.0526" stroke="#BEBEBE" stroke-miterlimit="10" stroke-linecap="round"/>
</svg>
