<svg width="34" height="34" viewBox="0 0 34 34" fill="none" xmlns="http://www.w3.org/2000/svg">
<rect width="34" height="34" rx="5" fill="#D16130"/>
<g clip-path="url(#clip0)">
<path d="M15.4579 15.4569C15.6237 15.2901 15.8076 15.1422 16.0061 15.016C16.5319 14.6793 17.1431 14.5004 17.7674 14.5004C18.634 14.4988 19.4654 14.8431 20.077 15.4569L23.0445 18.4267C23.6551 19.0385 23.9984 19.8674 23.9989 20.7318C24 22.5357 22.5387 23.9989 20.7349 24C19.8697 24.003 19.0391 23.6604 18.4277 23.0482L15.9781 20.5986C15.9336 20.5545 15.9087 20.4943 15.9091 20.4316C15.9098 20.3028 16.0149 20.199 16.1437 20.1997H16.237C16.7488 20.2015 17.256 20.1032 17.7301 19.9104C17.8175 19.8745 17.9178 19.8948 17.9844 19.9617L19.7457 21.7254C20.2927 22.2724 21.1794 22.2724 21.7264 21.7254C22.2733 21.1785 22.2733 20.2917 21.7264 19.7448L18.7472 16.768C18.2007 16.2222 17.3154 16.2222 16.7689 16.768C16.4006 17.1146 15.8261 17.1146 15.4578 16.768C15.2994 16.6094 15.2033 16.399 15.1872 16.1754C15.1702 15.9082 15.2687 15.6464 15.4579 15.4569Z" fill="white"/>
<path d="M10.9577 10.9567C12.2333 9.68111 14.3014 9.68111 15.5769 10.9567L18.0241 13.4015C18.0913 13.4691 18.1107 13.5706 18.0731 13.6582C18.036 13.746 17.9491 13.8023 17.8538 13.8005H17.7675C17.2564 13.7995 16.75 13.8986 16.2768 14.0921C16.1895 14.128 16.0891 14.1078 16.0225 14.0408L14.2658 12.2864C13.7189 11.7395 12.8321 11.7395 12.2852 12.2864C11.7383 12.8334 11.7383 13.7201 12.2852 14.2671L14.4735 16.453L14.4922 16.474L15.2573 17.2345C15.8038 17.7804 16.6892 17.7804 17.2357 17.2345C17.604 16.8879 18.1785 16.8879 18.5467 17.2345C18.7062 17.3943 18.8024 17.6065 18.8174 17.8318C18.8344 18.099 18.7359 18.3607 18.5467 18.5503C18.2767 18.8215 17.9608 19.0426 17.6136 19.2035C17.5646 19.2268 17.5156 19.2455 17.4666 19.2665C17.4176 19.2875 17.3663 19.3038 17.3173 19.3225C17.2683 19.3412 17.217 19.3575 17.168 19.3715L17.0304 19.4088C16.9371 19.4321 16.8437 19.4508 16.7481 19.4671C16.6329 19.4842 16.5169 19.4951 16.4005 19.4998H16.2372H16.2232L16.0832 19.4835C16.0319 19.4811 15.9782 19.4695 15.9176 19.4695H15.8383L15.6773 19.4461L15.6026 19.4321L15.4673 19.4041H15.4417C14.8686 19.2602 14.3453 18.9635 13.9276 18.5456L10.9578 15.5758C9.68219 14.3003 9.68219 12.2322 10.9577 10.9567Z" fill="white"/>
</g>
<defs>
<clipPath id="clip0">
<rect width="14" height="14" fill="white" transform="matrix(-1 0 0 1 24 10)"/>
</clipPath>
</defs>
</svg>
