<svg width="38" height="15" viewBox="0 0 38 15" fill="none" xmlns="http://www.w3.org/2000/svg">
<path d="M20.4296 2.71672C22.5649 2.86163 24.127 3.32608 24.127 3.87507C24.127 4.53832 21.8351 5.08142 19 5.08142C16.1712 5.08142 13.873 4.53832 13.873 3.87507C13.873 3.21151 16.1712 2.66872 19 2.66872C19.4945 2.66813 19.9772 2.68609 20.4296 2.71672Z" fill="#CCD1D9"/>
<path d="M33.5607 1.4617C33.1746 0.858521 32.6076 0.858521 31.9682 0.858521H6.03171C5.39231 0.858521 4.82536 0.858521 4.43925 1.4617L0.275635 7.33293C0.384312 7.29611 1.07967 6.89027 1.20631 6.89027H36.7936L37.6931 7.2967L33.5607 1.4617ZM19 5.08074C16.1711 5.08074 13.873 4.53765 13.873 3.87439C13.873 3.21084 16.1711 2.66804 19 2.66804C19.4945 2.66804 19.9772 2.68542 20.4296 2.71605C22.5648 2.86095 24.1269 3.32541 24.1269 3.87439C24.1269 4.53765 21.835 5.08074 19 5.08074V5.08074Z" fill="#545C66"/>
<path d="M20.5079 4.17593H17.492C17.3256 4.17593 17.1904 4.04074 17.1904 3.87434C17.1904 3.70764 17.3256 3.57275 17.492 3.57275H20.5079C20.6743 3.57275 20.8095 3.70764 20.8095 3.87434C20.8095 4.04074 20.6743 4.17593 20.5079 4.17593Z" fill="#AAB2BD"/>
<path d="M29.8573 0.858521H29.2542C29.2547 1.02492 29.3893 1.15952 29.5557 1.15952C29.7221 1.15952 29.8567 1.02551 29.8573 0.858521Z" fill="#434A54"/>
<path d="M26.8412 0.858521H26.238C26.2386 1.02492 26.3732 1.15952 26.5396 1.15952C26.706 1.15952 26.8406 1.02551 26.8412 0.858521Z" fill="#434A54"/>
<path d="M23.8253 0.858521H23.2222C23.2228 1.02492 23.3574 1.15952 23.5238 1.15952C23.6902 1.15952 23.8248 1.02551 23.8253 0.858521Z" fill="#434A54"/>
<path d="M20.8095 0.858521H20.2063C20.2069 1.02492 20.3415 1.15952 20.5079 1.15952C20.6743 1.15952 20.8089 1.02551 20.8095 0.858521Z" fill="#434A54"/>
<path d="M17.7938 0.858521H17.1907C17.1913 1.02492 17.3259 1.15952 17.4923 1.15952C17.6587 1.15952 17.7933 1.02551 17.7938 0.858521Z" fill="#434A54"/>
<path d="M14.778 0.858521H14.1748C14.1754 1.02492 14.31 1.15952 14.4764 1.15952C14.6428 1.15952 14.7774 1.02551 14.778 0.858521Z" fill="#434A54"/>
<path d="M11.7621 0.858521H11.1589C11.1595 1.02492 11.2941 1.15952 11.4605 1.15952C11.6269 1.15952 11.7615 1.02551 11.7621 0.858521Z" fill="#434A54"/>
<path d="M8.746 0.858521H8.14282C8.14341 1.02492 8.27801 1.15952 8.44441 1.15952C8.61081 1.15952 8.74541 1.02551 8.746 0.858521Z" fill="#434A54"/>
<path d="M38 8.09673V12.9221C38 13.5854 37.4572 14.1285 36.7937 14.1285H1.20635C0.542798 14.1285 0 13.5854 0 12.9221V8.09673C0 7.55923 0.355779 7.09537 0.85057 6.94457C0.958953 6.90776 1.07971 6.89038 1.20635 6.89038H36.7937C37.4572 6.89038 38 7.43377 38 8.09673Z" fill="#656D78"/>
<path d="M25.9364 9.90613C26.2681 9.90613 26.5396 10.1768 26.5396 10.5093C26.5396 10.8403 26.2681 11.1125 25.9364 11.1125C25.6048 11.1125 25.3333 10.8403 25.3333 10.5093C25.3333 10.1774 25.6048 9.90613 25.9364 9.90613Z" fill="#5D9CEC"/>
<path d="M22.3175 9.90613C22.6492 9.90613 22.9207 10.1768 22.9207 10.5093C22.9207 10.8403 22.6492 11.1125 22.3175 11.1125C21.9859 11.1125 21.7144 10.8403 21.7144 10.5093C21.7144 10.1774 21.9859 9.90613 22.3175 9.90613Z" fill="#5D9CEC"/>
<path d="M18.6984 9.90613C19.03 9.90613 19.3016 10.1768 19.3016 10.5093C19.3016 10.8403 19.03 11.1125 18.6984 11.1125C18.3668 11.1125 18.0952 10.8403 18.0952 10.5093C18.0952 10.1774 18.3668 9.90613 18.6984 9.90613Z" fill="#AAB2BD"/>
<path d="M15.0795 9.90613C15.4111 9.90613 15.6827 10.1768 15.6827 10.5093C15.6827 10.8403 15.4111 11.1125 15.0795 11.1125C14.7479 11.1125 14.4763 10.8403 14.4763 10.5093C14.4763 10.1774 14.7479 9.90613 15.0795 9.90613Z" fill="#AAB2BD"/>
<path d="M11.4604 9.90613C11.792 9.90613 12.0635 10.1768 12.0635 10.5093C12.0635 10.8403 11.792 11.1125 11.4604 11.1125C11.1287 11.1125 10.8572 10.8403 10.8572 10.5093C10.8572 10.1774 11.1287 9.90613 11.4604 9.90613Z" fill="#AAB2BD"/>
<path d="M3.61895 9.30298C4.2825 9.30298 4.8253 9.84578 4.8253 10.5093C4.8253 11.1726 4.2825 11.7157 3.61895 11.7157C2.94951 11.7157 2.4126 11.1726 2.4126 10.5093C2.4126 9.84578 2.94951 9.30298 3.61895 9.30298Z" fill="#5D9CEC"/>
<path d="M35.2857 9.30298C35.4515 9.30298 35.5873 9.43846 35.5873 9.60457V11.4141C35.5873 11.5799 35.4515 11.7157 35.2857 11.7157H34.6825C34.5167 11.7157 34.2452 11.7157 34.0794 11.7157H33.4762C33.3104 11.7157 33.0388 11.7157 32.873 11.7157H32.2698C32.104 11.7157 31.9683 11.5799 31.9683 11.4141V9.60457C31.9683 9.43846 32.104 9.30298 32.2698 9.30298H35.2857Z" fill="#545C66"/>
<path d="M33.1746 11.1125C33.0082 11.1125 32.873 11.2474 32.873 11.4141V11.7157H33.4762V11.4141C33.4762 11.2474 33.341 11.1125 33.1746 11.1125Z" fill="#434A54"/>
<path d="M34.3809 11.1125C34.2145 11.1125 34.0793 11.2474 34.0793 11.4141V11.7157H34.6825V11.4141C34.6825 11.2474 34.5473 11.1125 34.3809 11.1125Z" fill="#434A54"/>
</svg>
