<svg width="40" height="40" viewBox="0 0 40 40" fill="none" xmlns="http://www.w3.org/2000/svg">
<rect width="40" height="40" rx="3" fill="#54C0FD"/>
<path d="M22.4881 13.3754H13.5243C12.6832 13.3754 12 14.0592 12 14.9011V27.7743C12 28.6162 12.6832 29.3 13.5243 29.3H22.4881C23.3292 29.3 24.0124 28.6162 24.0124 27.7743V14.9011C24.0084 14.0592 23.3253 13.3754 22.4881 13.3754ZM22.9423 27.7704C22.9423 28.0233 22.7369 28.2289 22.4842 28.2289H13.5203C13.2676 28.2289 13.0622 28.0233 13.0622 27.7704V14.9011C13.0622 14.6481 13.2676 14.4426 13.5203 14.4426H22.4842C22.7369 14.4426 22.9423 14.6481 22.9423 14.9011V27.7704Z" fill="white"/>
<path d="M25.9158 10H16.9519C16.1108 10 15.4276 10.6838 15.4276 11.5257C15.4276 11.8221 15.6645 12.0592 15.9607 12.0592C16.2569 12.0592 16.4938 11.8221 16.4938 11.5257C16.4938 11.2727 16.6991 11.0672 16.9519 11.0672H25.9158C26.1685 11.0672 26.3738 11.2727 26.3738 11.5257V24.3989C26.3738 24.6519 26.1685 24.8574 25.9158 24.8574C25.6196 24.8574 25.3827 25.0946 25.3827 25.391C25.3827 25.6874 25.6196 25.9246 25.9158 25.9246C26.7569 25.9246 27.44 25.2408 27.44 24.3989V11.5257C27.44 10.6838 26.7569 10 25.9158 10Z" fill="white"/>
</svg>
