<svg width="20" height="20" fill="none" xmlns="http://www.w3.org/2000/svg" style=""><rect id="backgroundrect" width="100%" height="100%" x="0" y="0" fill="none" stroke="none" style="" class=""/>
<g><path d="M5.95051383972168,18.282453060150146 C5.968613624572754,18.713754177093506 6.323513984680176,19.054053783416748 6.755013465881348,19.054053783416748 H14.272012710571289 C14.70361328125,19.054053783416748 15.058513641357422,18.713754177093506 15.076513290405273,18.282453060150146 L15.613412857055664,6.9501543045043945 H5.413713455200195 L5.95051383972168,18.282453060150146 zM12.214014053344727,9.764955043792725 C12.214014053344727,9.584354400634766 12.360414505004883,9.437853813171387 12.541013717651367,9.437853813171387 H13.06411361694336 C13.244712829589844,9.437853813171387 13.391214370727539,9.584254264831543 13.391214370727539,9.764955043792725 V16.239354610443115 C13.391214370727539,16.4199538230896 13.244813919067383,16.566354274749756 13.06411361694336,16.566354274749756 H12.541013717651367 C12.360513687133789,16.566354274749756 12.214014053344727,16.4199538230896 12.214014053344727,16.239354610443115 V9.764955043792725 zM9.92501449584961,9.764955043792725 C9.92501449584961,9.584354400634766 10.071413040161133,9.437853813171387 10.25201416015625,9.437853813171387 H10.775114059448242 C10.95561408996582,9.437853813171387 11.102113723754883,9.584254264831543 11.102113723754883,9.764955043792725 V16.239354610443115 C11.102113723754883,16.4199538230896 10.955713272094727,16.566354274749756 10.775114059448242,16.566354274749756 H10.25201416015625 C10.071413040161133,16.566354274749756 9.92501449584961,16.4199538230896 9.92501449584961,16.239354610443115 V9.764955043792725 zM7.635913848876953,9.764955043792725 C7.635913848876953,9.584354400634766 7.782313346862793,9.437853813171387 7.962913513183594,9.437853813171387 H8.486013412475586 C8.666613578796387,9.437853813171387 8.81311321258545,9.584254264831543 8.81311321258545,9.764955043792725 V16.239354610443115 C8.81311321258545,16.4199538230896 8.666613578796387,16.566354274749756 8.486013412475586,16.566354274749756 H7.962913513183594 C7.782313346862793,16.566354274749756 7.635913848876953,16.4199538230896 7.635913848876953,16.239354610443115 V9.764955043792725 z" fill="#FF1F47" id="svg_1" class=""/><path d="M15.970813572406769,3.878293991088867 H12.502914249897003 V3.2226743698120117 C12.502914249897003,3.1295738220214844 12.427413761615753,3.0540542602539062 12.334314167499542,3.0540542602539062 H8.692714512348175 C8.599613010883331,3.0540542602539062 8.524113953113556,3.1295738220214844 8.524113953113556,3.2226743698120117 V3.878253936767578 H5.056213676929474 C4.77711421251297,3.878253936767578 4.550914108753204,4.104454040527344 4.550914108753204,4.383554458618164 V5.970953941345215 H16.476114094257355 V4.383654594421387 C16.476114094257355,4.104554176330566 16.24981290102005,3.878293991088867 15.970813572406769,3.878293991088867 z" fill="#FF1F47" id="svg_2" class=""/></g></svg>
