<svg width="34" height="34" viewBox="0 0 34 34" fill="none" xmlns="http://www.w3.org/2000/svg">
<rect width="34" height="34" rx="5" fill="#DA1337"/>
<path d="M12.437 24.2284C12.4551 24.6597 12.81 25 13.2415 25H20.7585C21.1901 25 21.545 24.6597 21.563 24.2284L22.0999 12.8961H11.9002L12.437 24.2284ZM18.7005 15.7109C18.7005 15.5303 18.8469 15.3838 19.0275 15.3838H19.5506C19.7312 15.3838 19.8777 15.5302 19.8777 15.7109V22.1853C19.8777 22.3659 19.7313 22.5123 19.5506 22.5123H19.0275C18.847 22.5123 18.7005 22.3659 18.7005 22.1853V15.7109ZM16.4115 15.7109C16.4115 15.5303 16.5579 15.3838 16.7385 15.3838H17.2616C17.4421 15.3838 17.5886 15.5302 17.5886 15.7109V22.1853C17.5886 22.3659 17.4422 22.5123 17.2616 22.5123H16.7385C16.5579 22.5123 16.4115 22.3659 16.4115 22.1853V15.7109ZM14.1224 15.7109C14.1224 15.5303 14.2688 15.3838 14.4494 15.3838H14.9725C15.1531 15.3838 15.2996 15.5302 15.2996 15.7109V22.1853C15.2996 22.3659 15.1531 22.5123 14.9725 22.5123H14.4494C14.2688 22.5123 14.1224 22.3659 14.1224 22.1853V15.7109Z" fill="white"/>
<path d="M22.4573 9.82424H18.9894V9.16862C18.9894 9.07552 18.9139 9 18.8208 9H15.1792C15.0861 9 15.0106 9.07552 15.0106 9.16862V9.8242H11.5427C11.2636 9.8242 11.0374 10.0504 11.0374 10.3295V11.9169H22.9626V10.3296C22.9626 10.0505 22.7363 9.82424 22.4573 9.82424Z" fill="white"/>
</svg>
