<svg width="40" height="40" viewBox="0 0 40 40" fill="none" xmlns="http://www.w3.org/2000/svg">
<rect width="40" height="40" rx="3" fill="#DE4C3C"/>
<path d="M14.1619 27.1999C13.8939 27.4679 13.4611 27.4611 13.1932 27.1932C12.9253 26.9253 12.9255 26.4994 13.1935 26.2314L19.0276 20.3973L13.1962 14.5658C12.9287 14.2975 12.9289 13.8578 13.1969 13.5897C13.4649 13.3217 13.8977 13.3286 14.1656 13.5964L19.997 19.4279L25.8312 13.5937C26.0992 13.3257 26.532 13.3186 26.7999 13.5865C27.0677 13.8544 27.0676 14.2941 26.7996 14.5621L20.9655 20.3963L26.7969 26.2277C27.0648 26.4956 27.0716 26.9284 26.8036 27.1964C26.5356 27.4644 26.0958 27.4646 25.8279 27.1967L19.9965 21.3653L14.1619 27.1999Z" fill="white"/>
</svg>
