<?xml version="1.0" encoding="UTF-8"?>
<svg enable-background="new 0 0 470 470" version="1.1" viewBox="0 0 470 470" fill="#808080" xml:space="preserve" xmlns="http://www.w3.org/2000/svg">
			<path d="m432.5 12.5h-395c-20.678 0-37.5 16.823-37.5 37.5v300c0 20.677 16.822 37.5 37.5 37.5h145v55h-52.5c-4.142 0-7.5 3.358-7.5 7.5s3.358 7.5 7.5 7.5h210c4.142 0 7.5-3.358 7.5-7.5s-3.358-7.5-7.5-7.5h-52.5v-55h145c20.678 0 37.5-16.823 37.5-37.5v-300c0-20.677-16.822-37.5-37.5-37.5zm-160 430h-75v-55h75v55zm182.5-92.5c0 12.406-10.093 22.5-22.5 22.5h-395c-12.407 0-22.5-10.094-22.5-22.5v-22.5h440v22.5zm0-37.5h-440v-262.5c0-12.406 10.093-22.5 22.5-22.5h395c12.407 0 22.5 10.094 22.5 22.5v262.5z"/>
			<path d="m432.5 42.5h-395c-4.142 0-7.5 3.358-7.5 7.5v240c0 4.142 3.358 7.5 7.5 7.5h325c4.142 0 7.5-3.358 7.5-7.5s-3.358-7.5-7.5-7.5h-317.5v-225h380v225h-32.5c-4.142 0-7.5 3.358-7.5 7.5s3.358 7.5 7.5 7.5h40c4.142 0 7.5-3.358 7.5-7.5v-240c0-4.142-3.358-7.5-7.5-7.5z"/>
</svg>
