<?xml version="1.0" encoding="UTF-8"?>
<!DOCTYPE svg  PUBLIC '-//W3C//DTD SVG 1.1//EN'  'http://www.w3.org/Graphics/SVG/1.1/DTD/svg11.dtd'>
<svg enable-background="new 0 0 465 465" fill="#808080" version="1.1" viewBox="0 0 465 465" xml:space="preserve" xmlns="http://www.w3.org/2000/svg">
	<path d="m300.87 395.98h-111.3c-4.142 0-7.5 3.358-7.5 7.5s3.358 7.5 7.5 7.5h111.3c4.142 0 7.5-3.358 7.5-7.5s-3.358-7.5-7.5-7.5z"/>
	<path d="m300.87 365.98h-111.3c-4.142 0-7.5 3.358-7.5 7.5s3.358 7.5 7.5 7.5h111.3c4.142 0 7.5-3.358 7.5-7.5s-3.358-7.5-7.5-7.5z"/>
	<path d="m300.87 335.98h-111.3c-4.142 0-7.5 3.358-7.5 7.5s3.358 7.5 7.5 7.5h111.3c4.142 0 7.5-3.358 7.5-7.5s-3.358-7.5-7.5-7.5z"/>
	<path d="m300.87 255.26h-111.3c-4.142 0-7.5 3.358-7.5 7.5v37.72c0 4.142 3.358 7.5 7.5 7.5h20c4.142 0 7.5-3.358 7.5-7.5s-3.358-7.5-7.5-7.5h-12.5v-22.72h96.301v22.72h-53.801c-4.142 0-7.5 3.358-7.5 7.5s3.358 7.5 7.5 7.5h61.301c4.142 0 7.5-3.358 7.5-7.5v-37.72c0-4.142-3.358-7.5-7.5-7.5z"/>
	<path d="m380.86 255.26c-22.667 0-41.107 18.441-41.107 41.107s18.441 41.107 41.107 41.107 41.107-18.441 41.107-41.107-18.441-41.107-41.107-41.107zm0 67.215c-14.396 0-26.107-11.712-26.107-26.107s11.712-26.107 26.107-26.107 26.107 11.712 26.107 26.107-11.712 26.107-26.107 26.107z"/>
	<path d="m439.5 208.73h-14.5v-93.119c0-4.142-3.358-7.5-7.5-7.5h-24.58v-93.12c0-4.142-3.358-7.5-7.5-7.5h-169.11c-4.142 0-7.5 3.358-7.5 7.5v93.12h-24.58c-4.142 0-7.5 3.358-7.5 7.5v93.119h-26.246c-0.772-42.195-2.084-72.22-2.103-72.639-2e-3 -0.042-4e-3 -0.084-7e-3 -0.127-0.475-7.755-5.823-15.108-12.921-18.282-3.269-3.166-11.304-5.129-39.938-5.129s-36.669 1.963-39.938 5.129c-7.097 3.174-12.445 10.527-12.921 18.282-2e-3 0.042-5e-3 0.085-7e-3 0.127-0.018 0.419-1.331 30.442-2.103 72.639h-15.049c-14.061 0-25.5 11.439-25.5 25.5v197.78c0 14.061 11.439 25.5 25.5 25.5h414c14.061 0 25.5-11.439 25.5-25.5v-197.78c0-14.061-11.439-25.5-25.5-25.5zm-29.5-85.62v85.619h-17.08v-85.619h17.08zm-186.19-100.62h154.11v186.24h-154.11v-186.24zm-32.08 100.62h17.08v85.619h-17.08v-85.619zm-134.1 13.723c0.171-2.275 2.553-5.14 4.754-5.701 1.303-0.332 2.471-1.002 3.403-1.917 2.48-0.566 9.847-1.662 29.727-1.662s27.247 1.096 29.727 1.662c0.932 0.916 2.101 1.585 3.403 1.917 2.201 0.561 4.583 3.426 4.753 5.702 0.108 2.492 2.595 60.495 2.635 128.2-0.04 67.708-2.526 125.71-2.635 128.2-0.17 2.275-2.553 5.141-4.754 5.702-1.303 0.332-2.471 1.002-3.403 1.917-2.48 0.566-9.847 1.662-29.727 1.662s-27.247-1.096-29.727-1.662c-0.932-0.916-2.1-1.585-3.403-1.917-2.201-0.561-4.583-3.426-4.754-5.701-0.108-2.492-2.594-60.478-2.634-128.2 0.04-67.708 2.526-125.71 2.635-128.2zm392.36 295.18c0 5.79-4.71 10.5-10.5 10.5h-414c-5.79 0-10.5-4.71-10.5-10.5v-197.78c0-5.79 4.71-10.5 10.5-10.5h14.808c-0.182 13.049-0.3 26.96-0.308 41.308 0.041 69.212 2.627 128.35 2.653 128.94 2e-3 0.042 4e-3 0.085 7e-3 0.127 0.476 7.755 5.824 15.107 12.921 18.282 3.269 3.166 11.304 5.129 39.938 5.129 28.636 0 36.67-1.963 39.938-5.129 7.097-3.175 12.445-10.527 12.92-18.282 3e-3 -0.042 5e-3 -0.084 7e-3 -0.127 0.026-0.589 2.612-59.727 2.653-128.95-8e-3 -14.344-0.127-28.252-0.308-41.299h288.77c5.79 0 10.5 4.71 10.5 10.5v197.78z"/>
	<path d="m262.17 173.42h38.692c4.142 0 7.5-3.358 7.5-7.5s-3.358-7.5-7.5-7.5h-38.692c-4.142 0-7.5 3.358-7.5 7.5s3.358 7.5 7.5 7.5z"/>
	<path d="m262.17 123.11h77.384c4.142 0 7.5-3.358 7.5-7.5s-3.358-7.5-7.5-7.5h-77.384c-4.142 0-7.5 3.358-7.5 7.5s3.358 7.5 7.5 7.5z"/>
	<path d="m262.17 72.799h77.384c4.142 0 7.5-3.358 7.5-7.5s-3.358-7.5-7.5-7.5h-77.384c-4.142 0-7.5 3.358-7.5 7.5s3.358 7.5 7.5 7.5z"/>
</svg>
