<?xml version="1.0" encoding="UTF-8"?>
<svg enable-background="new 0 0 352.4 352.4" version="1.1" viewBox="0 0 352.4 352.4" fill="#808080" xml:space="preserve" xmlns="http://www.w3.org/2000/svg">
			<path d="m332.6 16.4c-10.4-10.4-24.4-16.4-40-16.4h-54v21.6h53.6c9.6 0 18.4 4 24.8 10.4s10.4 15.2 10.4 24.8v57.2h21.6v-57.6c0-15.6-6.4-29.6-16.4-40z"/>
			<path d="m35.4 320c-6.4-6.4-10.4-15.2-10.4-24.8v-56.8h-21.6v57.2c0 15.6 6.4 29.6 16.4 40 10.8 10 24.8 16.4 40.4 16.4h53.6v-21.6h-53.6c-9.6 0-18.4-4-24.8-10.4z"/>
			<path d="m327 295.6c0 9.6-4 18.4-10.4 24.8s-15.2 10.4-24.8 10.4h-53.2v21.6h53.6c15.6 0 29.6-6.4 40-16.4 10.4-10.4 16.4-24.4 16.4-40v-57.6h-21.6v57.2z"/>
			<path d="m20.2 16.4c-10.4 10.4-16.4 24.4-16.4 40v57.2h21.6v-57.2c0-9.6 4-18.4 10.4-24.8s15.2-10.4 24.8-10.4h53.6v-21.2h-54c-15.6 0-29.6 6.4-40 16.4z"/>
</svg>
