<?xml version="1.0" encoding="UTF-8"?>
<svg enable-background="new 0 0 512 512" version="1.1" viewBox="0 0 512 512" fill="#808080" xml:space="preserve" xmlns="http://www.w3.org/2000/svg">
		<path d="m504.5 167.5h-26v-22.5c0-4.142-3.358-7.5-7.5-7.5h-430c-4.142 0-7.5 3.358-7.5 7.5v22.5h-26c-4.142 0-7.5 3.358-7.5 7.5v113c0 4.142 3.358 7.5 7.5 7.5s7.5-3.358 7.5-7.5v-105.5h48.667c4.142 0 7.5-3.358 7.5-7.5s-3.358-7.5-7.5-7.5h-15.167v-15h415v15h-367.5c-4.142 0-7.5 3.358-7.5 7.5s3.358 7.5 7.5 7.5h401v147h-48.75c-4.142 0-7.5 3.358-7.5 7.5s3.358 7.5 7.5 7.5h15.25v15h-415v-15h367.25c4.142 0 7.5-3.358 7.5-7.5s-3.358-7.5-7.5-7.5h-400.75v-9.5c0-4.142-3.358-7.5-7.5-7.5s-7.5 3.358-7.5 7.5v17c0 4.142 3.358 7.5 7.5 7.5h26v22.5c0 4.142 3.358 7.5 7.5 7.5h430c4.142 0 7.5-3.358 7.5-7.5v-22.5h26c4.142 0 7.5-3.358 7.5-7.5v-162c0-4.142-3.358-7.5-7.5-7.5z"/>
		<path d="m289.07 216.5h-68c-4.142 0-7.5 3.358-7.5 7.5v45.982c0 4.142 3.358 7.5 7.5 7.5h5.757v10.518c1e-3 4.142 3.359 7.5 7.501 7.5h41.485c4.142 0 7.5-3.358 7.5-7.5v-10.518h5.757c4.142 0 7.5-3.358 7.5-7.5v-45.982c0-4.142-3.358-7.5-7.5-7.5zm-7.499 45.982h-5.757c-4.142 0-7.5 3.358-7.5 7.5v10.518h-26.485v-10.518c0-4.142-3.358-7.5-7.5-7.5h-5.757v-30.982h52.999v30.982z"/>
		<path d="m196.26 216.5h-68c-4.142 0-7.5 3.358-7.5 7.5v45.982c0 4.142 3.358 7.5 7.5 7.5h5.757v10.518c0 4.142 3.358 7.5 7.5 7.5h41.486c4.142 0 7.5-3.358 7.5-7.5v-10.518h5.757c4.142 0 7.5-3.358 7.5-7.5v-45.982c0-4.142-3.358-7.5-7.5-7.5zm-7.5 45.982h-5.757c-4.142 0-7.5 3.358-7.5 7.5v10.518h-26.486v-10.518c0-4.142-3.358-7.5-7.5-7.5h-5.757v-30.982h53v30.982z"/>
		<path d="m381.78 216.5h-68c-4.142 0-7.5 3.358-7.5 7.5v45.982c0 4.142 3.358 7.5 7.5 7.5h5.757v10.518c0 4.142 3.358 7.5 7.5 7.5h41.486c4.142 0 7.5-3.358 7.5-7.5v-10.518h5.757c4.142 0 7.5-3.358 7.5-7.5v-45.982c0-4.142-3.358-7.5-7.5-7.5zm-7.5 45.982h-5.757c-4.142 0-7.5 3.358-7.5 7.5v10.518h-26.486v-10.518c0-4.142-3.358-7.5-7.5-7.5h-5.757v-30.982h53v30.982z"/>
		<path d="m474.5 216.5h-68c-4.142 0-7.5 3.358-7.5 7.5v45.982c0 4.142 3.358 7.5 7.5 7.5h5.757v10.518c1e-3 4.142 3.359 7.5 7.501 7.5h41.485c4.142 0 7.5-3.358 7.5-7.5v-10.518h5.757c4.142 0 7.5-3.358 7.5-7.5v-45.982c0-4.142-3.358-7.5-7.5-7.5zm-7.499 45.982h-5.757c-4.142 0-7.5 3.358-7.5 7.5v10.518h-26.485v-10.518c0-4.142-3.358-7.5-7.5-7.5h-5.758v-30.982h53v30.982z"/>
		<path d="m97.899 217.94h-56.629c-4.142 0-7.5 3.358-7.5 7.5s3.358 7.5 7.5 7.5h56.629c4.142 0 7.5-3.358 7.5-7.5s-3.358-7.5-7.5-7.5z"/>
		<path d="m97.899 238.31h-56.629c-4.142 0-7.5 3.358-7.5 7.5s3.358 7.5 7.5 7.5h56.629c4.142 0 7.5-3.358 7.5-7.5s-3.358-7.5-7.5-7.5z"/>
		<path d="m97.899 258.69h-56.629c-4.142 0-7.5 3.358-7.5 7.5s3.358 7.5 7.5 7.5h56.629c4.142 0 7.5-3.358 7.5-7.5s-3.358-7.5-7.5-7.5z"/>
		<path d="m97.899 279.06h-56.629c-4.142 0-7.5 3.358-7.5 7.5s3.358 7.5 7.5 7.5h56.629c4.142 0 7.5-3.358 7.5-7.5s-3.358-7.5-7.5-7.5z"/>
</svg>
