<?xml version="1.0" encoding="UTF-8"?>
<svg enable-background="new 0 0 60 60" version="1.1" viewBox="0 0 60 60" xml:space="preserve"  fill="#808080" xmlns="http://www.w3.org/2000/svg">
		<path d="m6 37h3c0.552 0 1-0.447 1-1s-0.448-1-1-1h-3c-0.552 0-1 0.447-1 1s0.448 1 1 1z"/>
		<path d="m6 41h3c0.552 0 1-0.447 1-1s-0.448-1-1-1h-3c-0.552 0-1 0.447-1 1s0.448 1 1 1z"/>
		<path d="m13 37h3c0.552 0 1-0.447 1-1s-0.448-1-1-1h-3c-0.552 0-1 0.447-1 1s0.448 1 1 1z"/>
		<path d="m13 41h3c0.552 0 1-0.447 1-1s-0.448-1-1-1h-3c-0.552 0-1 0.447-1 1s0.448 1 1 1z"/>
		<path d="m53 42c2.206 0 4-1.794 4-4s-1.794-4-4-4-4 1.794-4 4 1.794 4 4 4zm0-6c1.103 0 2 0.897 2 2s-0.897 2-2 2-2-0.897-2-2 0.897-2 2-2z"/>
		<path d="m20 37h3c0.552 0 1-0.447 1-1s-0.448-1-1-1h-3c-0.552 0-1 0.447-1 1s0.448 1 1 1z"/>
		<path d="m20 41h3c0.552 0 1-0.447 1-1s-0.448-1-1-1h-3c-0.552 0-1 0.447-1 1s0.448 1 1 1z"/>
		<circle cx="31" cy="35" r="1"/>
		<circle cx="31" cy="41" r="1"/>
		<circle cx="33" cy="38" r="1"/>
		<circle cx="35" cy="35" r="1"/>
		<circle cx="35" cy="41" r="1"/>
		<circle cx="37" cy="38" r="1"/>
		<circle cx="39" cy="35" r="1"/>
		<circle cx="39" cy="41" r="1"/>
		<path d="M56.405,24.956C58.42,24.738,60,23.047,60,20.975v-5.949c0-2.072-1.58-3.763-3.595-3.982l-4.326-3.462    C51.609,7.207,51.019,7,50.417,7H9.583C8.981,7,8.391,7.207,7.921,7.582l-4.326,3.462C1.58,11.262,0,12.953,0,15.025v5.949    c0,2.072,1.58,3.763,3.595,3.982L7.398,28l-3.804,3.044C1.58,31.262,0,32.953,0,35.025v5.949c0,2.072,1.58,3.763,3.595,3.982    l4.326,3.462C8.237,48.67,8.609,48.838,9,48.927v2.184C9,52.152,9.848,53,10.89,53h6.221c1.042,0,1.89-0.848,1.89-1.89V49h22v2.11    c0,1.042,0.848,1.89,1.89,1.89h6.221c1.042,0,1.89-0.848,1.89-1.89v-2.184c0.391-0.088,0.763-0.257,1.079-0.509l4.326-3.462    C58.42,44.738,60,43.047,60,40.975v-5.949c0-2.072-1.58-3.763-3.595-3.982L52.602,28L56.405,24.956z M2,20.975v-5.949    C2,13.908,2.909,13,4.026,13h51.948C57.091,13,58,13.908,58,15.025v5.949C58,22.092,57.091,23,55.974,23H4.026    C2.909,23,2,22.092,2,20.975z M9.17,9.145C9.286,9.052,9.433,9,9.583,9h40.835c0.15,0,0.296,0.052,0.413,0.145L53.149,11H6.851    L9.17,9.145z M53.149,25l-2.319,1.855C50.714,26.948,50.567,27,50.417,27H9.583c-0.15,0-0.296-0.052-0.413-0.145L6.851,25H53.149z     M58,35.025v5.949C58,42.092,57.091,43,55.974,43H4.026C2.909,43,2,42.092,2,40.975v-5.949C2,33.908,2.909,33,4.026,33h51.948    C57.091,33,58,33.908,58,35.025z M17,51h-6v-2h6V51z M49,51h-6v-2h6V51z M50.83,46.855C50.714,46.948,50.567,47,50.417,47H41H19    H9.583c-0.15,0-0.296-0.052-0.413-0.145L6.851,45H53.15L50.83,46.855z M6.851,31l2.319-1.855C9.286,29.052,9.433,29,9.583,29    h40.835c0.15,0,0.296,0.052,0.413,0.145L53.149,31H6.851z"/>
		<path d="m9 15h-3c-0.552 0-1 0.447-1 1s0.448 1 1 1h3c0.552 0 1-0.447 1-1s-0.448-1-1-1z"/>
		<path d="m9 19h-3c-0.552 0-1 0.447-1 1s0.448 1 1 1h3c0.552 0 1-0.447 1-1s-0.448-1-1-1z"/>
		<path d="m16 15h-3c-0.552 0-1 0.447-1 1s0.448 1 1 1h3c0.552 0 1-0.447 1-1s-0.448-1-1-1z"/>
		<path d="m16 19h-3c-0.552 0-1 0.447-1 1s0.448 1 1 1h3c0.552 0 1-0.447 1-1s-0.448-1-1-1z"/>
		<path d="m53 14c-2.206 0-4 1.794-4 4s1.794 4 4 4 4-1.794 4-4-1.794-4-4-4zm0 6c-1.103 0-2-0.897-2-2s0.897-2 2-2 2 0.897 2 2-0.897 2-2 2z"/>
		<path d="m23 15h-3c-0.552 0-1 0.447-1 1s0.448 1 1 1h3c0.552 0 1-0.447 1-1s-0.448-1-1-1z"/>
		<path d="m23 19h-3c-0.552 0-1 0.447-1 1s0.448 1 1 1h3c0.552 0 1-0.447 1-1s-0.448-1-1-1z"/>
		<circle cx="31" cy="15" r="1"/>
		<circle cx="31" cy="21" r="1"/>
		<circle cx="33" cy="18" r="1"/>
		<circle cx="35" cy="15" r="1"/>
		<circle cx="35" cy="21" r="1"/>
		<circle cx="37" cy="18" r="1"/>
		<circle cx="39" cy="15" r="1"/>
		<circle cx="39" cy="21" r="1"/>
</svg>
