<svg width="34" height="34" viewBox="0 0 34 34" fill="none" xmlns="http://www.w3.org/2000/svg">
<rect width="34" height="34" rx="5" fill="#D8D8D8"/>
<path d="M22.6667 15H21.6667V13.6667C21.6667 11.0934 19.5733 9 17 9C14.4267 9 12.3333 11.0934 12.3333 13.6667V15H11.3333C11.1491 15 11 15.1491 11 15.3333V23.6667C11 24.402 11.598 25 12.3333 25H21.6667C22.402 25 23 24.402 23 23.6667V15.3333C23 15.1491 22.8509 15 22.6667 15ZM17.9981 21.9632C18.0085 22.0573 17.9782 22.1517 17.9151 22.2223C17.8519 22.293 17.7614 22.3333 17.6667 22.3333H16.3333C16.2386 22.3333 16.1481 22.293 16.085 22.2223C16.0218 22.1517 15.9915 22.0573 16.002 21.9632L16.2123 20.0723C15.8708 19.8239 15.6667 19.431 15.6667 19C15.6667 18.2647 16.2647 17.6667 17 17.6667C17.7354 17.6667 18.3334 18.2646 18.3334 19C18.3334 19.431 18.1293 19.8239 17.7878 20.0723L17.9981 21.9632ZM19.6667 15H14.3333V13.6667C14.3333 12.1963 15.5296 11 17 11C18.4704 11 19.6667 12.1963 19.6667 13.6667V15V15Z" fill="white"/>
</svg>
