<?xml version="1.0" encoding="UTF-8"?>
<svg enable-background="new 0 0 480.011 480.011" version="1.1" viewBox="0 0 480.011 480.011" fill="#808080" xml:space="preserve" xmlns="http://www.w3.org/2000/svg">
		<path d="m373.07 381.02h-266.18c-10.439 0.013-18.899 8.473-18.912 18.912v18.176c0.013 10.439 8.473 18.899 18.912 18.912h266.18c10.439-0.013 18.899-8.473 18.912-18.912v-18.176c-0.013-10.44-8.472-18.899-18.911-18.912zm2.912 37.087c0 1.608-1.304 2.912-2.912 2.912h-266.18c-1.608 0-2.912-1.304-2.912-2.912v-18.176c0-1.608 1.304-2.912 2.912-2.912h266.18c1.608 0 2.912 1.304 2.912 2.912v18.176z"/>
		<path d="m108.66 140.88c-5.825-3.604-9.532-9.818-9.936-16.656 0.426-6.817 4.13-13.004 9.936-16.6 3.657-2.479 4.612-7.454 2.132-11.111s-7.454-4.612-11.111-2.132c-0.13 0.088-0.257 0.18-0.381 0.275-10.051 6.546-16.247 17.61-16.576 29.6 0.336 11.988 6.53 23.049 16.576 29.6 3.602 2.558 8.596 1.712 11.155-1.89 2.532-3.565 1.733-8.503-1.795-11.086z"/>
		<path d="m83.434 172.03c-14.969-11.452-24.059-28.976-24.8-47.808 0.739-18.833 9.829-36.358 24.8-47.808 3.187-3.06 3.289-8.125 0.229-11.311-2.791-2.906-7.307-3.283-10.541-0.881-18.595 14.456-29.769 36.457-30.472 60 0.689 23.558 11.864 45.577 30.472 60.04 3.414 2.805 8.455 2.311 11.26-1.103 2.754-3.353 2.334-8.291-0.948-11.129z"/>
		<path d="m71.49 220.54c-34.824-26.288-54.52-60.6-55.504-96.584-0.92-35.088 16.168-69.248 48.135-96.176l3.2-2.704c3.362-2.867 3.764-7.916 0.898-11.278-2.841-3.333-7.834-3.761-11.202-0.962h0.04l-3.2 2.704c-35.76 30.136-54.872 68.8-53.816 108.84 1.08 40.952 23.032 79.64 61.8 108.96 3.535 2.664 8.56 1.959 11.224-1.576 2.665-3.535 1.959-8.56-1.575-11.224z"/>
		<path d="m380.66 94.71c-3.505-2.69-8.527-2.03-11.217 1.475s-2.029 8.527 1.475 11.217c0.124 0.096 0.252 0.187 0.382 0.276 5.81 3.604 9.514 9.8 9.936 16.624-0.406 6.84-4.108 13.057-9.928 16.672-3.561 2.615-4.328 7.622-1.713 11.183 1.496 2.037 3.866 3.247 6.393 3.265 1.678 4e-3 3.314-0.526 4.672-1.512 10.046-6.551 16.24-17.612 16.576-29.6-0.335-11.989-6.53-23.051-16.576-29.6z"/>
		<path d="m406.85 64.302c-3.378-2.847-8.424-2.417-11.272 0.96-2.847 3.378-2.417 8.424 0.96 11.272 14.974 11.451 24.065 28.98 24.8 47.816-0.742 18.83-9.832 36.351-24.8 47.8-3.414 2.805-3.907 7.846-1.102 11.26s7.846 3.907 11.26 1.102c0.052-0.043 0.103-0.086 0.154-0.13 18.601-14.452 29.776-36.455 30.472-60-0.678-23.572-11.854-45.608-30.472-60.08z"/>
		<path d="m479.97 124.24c-1.104-40.976-23.048-79.672-61.824-108.99-3.535-2.664-8.56-1.959-11.224 1.576s-1.959 8.56 1.576 11.224c34.808 26.288 54.504 60.6 55.488 96.592 0.92 35.08-16.168 69.232-48.136 96.168l-3.2 2.704c-3.398 2.824-3.863 7.868-1.039 11.266s7.868 3.863 11.266 1.039c0.026-0.021 0.052-0.043 0.077-0.065l3.2-2.712c35.76-30.128 54.872-68.8 53.816-108.8z"/>
		<path d="m399.99 325.02h-30.2c-1.152-0.48-2.448-0.48-3.6 0h-14.2v-192c0-13.255-10.745-24-24-24s-24 10.745-24 24v191.64c-0.612 0.046-1.217 0.167-1.8 0.36h-126.2v-192c0-13.255-10.745-24-24-24s-24 10.745-24 24v192h-48c-13.255 0-24 10.745-24 24v96c0 13.255 10.745 24 24 24h320c13.255 0 24-10.745 24-24v-96c0-13.255-10.746-24-24-24zm-80-192c0-4.418 3.582-8 8-8s8 3.582 8 8v191.64c-0.612 0.046-1.217 0.167-1.8 0.36h-14.2v-192zm-176 0c0-4.418 3.582-8 8-8s8 3.582 8 8v192h-16v-192zm264 312c0 4.418-3.582 8-8 8h-320c-4.418 0-8-3.582-8-8v-96c0-4.418 3.582-8 8-8h152v8.36c0 4.418 3.582 8 8 8s8-3.582 8-8v-8.36h16v8.36c0 4.418 3.582 8 8 8s8-3.582 8-8v-8.36h16v8c0 4.418 3.582 8 8 8s8-3.582 8-8v-8h16v8c0 4.418 3.582 8 8 8s8-3.582 8-8v-8h16v8c0 4.418 3.582 8 8 8s8-3.582 8-8v-8h24c4.418 0 8 3.582 8 8v96z"/>
</svg>
