<?xml version="1.0" encoding="UTF-8"?>
<!DOCTYPE svg  PUBLIC '-//W3C//DTD SVG 1.1//EN'  'http://www.w3.org/Graphics/SVG/1.1/DTD/svg11.dtd'>
<svg enable-background="new 0 0 320.531 320.531" version="1.1" viewBox="0 0 320.531 320.531" fill="#808080" xml:space="preserve" xmlns="http://www.w3.org/2000/svg">
	<path d="m149.44 119.16v-55.594c13.007-3.342 22.648-15.168 22.648-29.204 0-16.624-13.524-30.148-30.148-30.148-16.623 0-30.147 13.524-30.147 30.148 0 14.036 9.641 25.861 22.647 29.203v55.594c-15.775 2.374-29.169 12.115-36.556 25.597l-32.99-25.646c0.807-2.271 1.25-4.714 1.25-7.258 0-11.99-9.755-21.745-21.745-21.745s-21.745 9.755-21.745 21.745 9.755 21.745 21.745 21.745c3.972 0 7.695-1.076 10.903-2.943l37.29 28.989c-0.55 2.971-0.852 6.027-0.852 9.155 0 11.14 3.652 21.44 9.815 29.777l-42.163 42.163c-2.929 2.929-2.929 7.678 0 10.606 1.465 1.464 3.385 2.197 5.304 2.197s3.839-0.732 5.304-2.197l42.163-42.163c6.429 4.753 14.026 8.012 22.277 9.254v55.718c-8.306 3.062-14.245 11.056-14.245 20.411 0 11.99 9.755 21.745 21.745 21.745s21.745-9.755 21.745-21.745c0-9.356-5.939-17.35-14.245-20.411v-55.717c24.136-3.631 42.7-24.506 42.7-49.637 0-25.133-18.565-46.008-42.7-49.639zm-105.04-0.562c-3.72 0-6.745-3.026-6.745-6.745s3.025-6.745 6.745-6.745 6.745 3.026 6.745 6.745-3.026 6.745-6.745 6.745zm82.393-84.236c0-8.353 6.795-15.148 15.147-15.148s15.148 6.795 15.148 15.148-6.796 15.148-15.148 15.148-15.147-6.795-15.147-15.148zm15.148 266.95c-3.72 0-6.745-3.026-6.745-6.745 0-3.255 2.317-5.979 5.389-6.608 0.44 0.081 0.892 0.129 1.356 0.129s0.916-0.048 1.356-0.129c3.072 0.629 5.389 3.353 5.389 6.608 0 3.719-3.026 6.745-6.745 6.745zm0-97.312c-19.409 0-35.199-15.791-35.199-35.2 0-3.425 0.501-6.734 1.417-9.867 0.049-0.155 0.095-0.309 0.133-0.466 4.425-14.382 17.834-24.867 33.649-24.867 19.409 0 35.2 15.791 35.2 35.2 0 19.41-15.791 35.2-35.2 35.2z"/>
	<path d="m290.38 95.953c-16.624 0-30.148 13.524-30.148 30.148 0 0.775 0.039 1.54 0.097 2.3l-54.238 18.493c-3.921 1.336-6.016 5.599-4.679 9.519 1.063 3.119 3.977 5.082 7.098 5.082 0.803 0 1.619-0.13 2.421-0.403l54.236-18.492c5.392 8.212 14.677 13.65 25.214 13.65 16.623 0 30.147-13.524 30.147-30.148-1e-3 -16.624-13.525-30.149-30.148-30.149zm0 45.297c-8.353 0-15.148-6.795-15.148-15.148s6.796-15.148 15.148-15.148 15.147 6.795 15.147 15.148c0 8.352-6.795 15.148-15.147 15.148z"/>
	<path d="m30.148 250.44c-16.624 0-30.148 13.525-30.148 30.148 0 16.624 13.524 30.148 30.148 30.148 16.623 0 30.147-13.524 30.147-30.148 1e-3 -16.623-13.524-30.148-30.147-30.148zm0 45.297c-8.353 0-15.148-6.795-15.148-15.148s6.796-15.148 15.148-15.148 15.147 6.795 15.147 15.148c1e-3 8.352-6.794 15.148-15.147 15.148z"/>
</svg>
