<?xml version="1.0" encoding="UTF-8"?>
<svg enable-background="new 0 0 480 480" version="1.1" viewBox="0 0 480 480" fill="#808080" xml:space="preserve" xmlns="http://www.w3.org/2000/svg">
			<path d="m100.84 319.36c0.968 0.416 283.16 0.656 283.16 0.656 53.019 0 96-42.981 96-96s-42.981-96-96-96c-3.386 0.012-6.77 0.205-10.136 0.576-12.835-73.907-83.153-123.42-157.06-110.58-44.474 7.723-82.206 37.037-100.68 78.222-1.368-0.064-2.712-0.216-4.12-0.216-61.829 0.013-111.94 50.146-111.93 111.98 0.012 57.49 43.566 105.62 100.77 111.37zm-84.529-118.68c3.793-49.228 44.325-87.541 93.689-88.56-3.983 12.924-6.006 26.372-6 39.896 0 4.418 3.582 8 8 8s8-3.582 8-8c-0.047-14.895 2.716-29.665 8.144-43.536 0.188-0.329 0.351-0.671 0.488-1.024 24.56-61.498 94.324-91.443 155.82-66.883 38.72 15.463 66.627 49.93 73.698 91.019-9.441 2.601-18.422 6.649-26.624 12-3.7 2.417-4.741 7.376-2.324 11.076s7.376 4.741 11.076 2.324c8.635-5.654 18.294-9.559 28.432-11.496 5.038-0.971 10.157-1.466 15.288-1.48 44.183 0 80 35.817 80 80s-35.817 80-80 80c0 0-276.86-0.064-279.39-0.296-52.836-4.072-92.368-50.204-88.297-103.04z"/>
			<path d="m456 336.02h-432c-13.255 0-24 10.745-24 24v80c0 13.255 10.745 24 24 24h432c13.255 0 24-10.745 24-24v-80c0-13.255-10.745-24-24-24zm8 104c0 4.418-3.582 8-8 8h-432c-4.418 0-8-3.582-8-8v-80c0-4.418 3.582-8 8-8h432c4.418 0 8 3.582 8 8v80z"/>
			<path d="m64 368.02c-17.673 0-32 14.327-32 32s14.327 32 32 32 32-14.327 32-32c0-17.674-14.327-32-32-32zm0 48c-8.837 0-16-7.163-16-16s7.163-16 16-16 16 7.163 16 16-7.163 16-16 16z"/>
			<path d="m440 392.02h-320c-4.418 0-8 3.582-8 8s3.582 8 8 8h320c4.418 0 8-3.582 8-8s-3.582-8-8-8z"/>
</svg>
