<svg width="40" height="30" viewBox="0 0 40 40" fill="none" xmlns="http://www.w3.org/2000/svg">
  <rect width="40" height="40" rx="3" fill="#43B05C"/>
  <path d="M11.0592 21.0781C10.6802 21.0781 10.3789 20.7673 10.3789 20.3885C10.3789 20.0097 10.6802 19.7086 11.0592 19.7086L19.3099 19.7086L19.3099 11.4617C19.3105 11.0829 19.6216 10.772 20.0006 10.772C20.3796 10.772 20.6809 11.0829 20.6809 11.4617L20.6809 19.7086L28.9316 19.7086C29.3106 19.7086 29.6217 20.0096 29.6217 20.3885C29.6217 20.7673 29.3106 21.0781 28.9316 21.0781L20.6809 21.0781L20.6809 29.325C20.6809 29.7039 20.3796 30.0147 20.0006 30.0147C19.6216 30.0147 19.3105 29.7039 19.3105 29.325L19.3105 21.0781L11.0592 21.0781Z" fill="white"/>
</svg>
