<svg height="569.284pt" viewBox="0 0 569.284 569.284" width="569.284pt" fill="#808080" xmlns="http://www.w3.org/2000/svg"><path d="m521.582031 170.699219h-18.964843v-56.898438c0-20.953125-16.984376-37.933593-37.933594-37.933593v-9.484376c0-.199218-.105469-.378906-.113282-.585937-.054687-.835937-.222656-1.664063-.492187-2.457031-.105469-.304688-.179687-.585938-.3125-.882813-.464844-1.03125-1.105469-1.972656-1.898437-2.777343l-56.902344-56.902344c-.804688-.792969-1.746094-1.433594-2.777344-1.894532-.289062-.121093-.582031-.226562-.882812-.3125-.796876-.277343-1.625-.441406-2.464844-.4960932-.160156.0312502-.339844-.0742188-.539063-.0742188h-284.5c-5.238281 0-9.484375 4.246094-9.484375 9.484375v66.382813c-20.949218 0-37.933594 16.984374-37.933594 37.933593v56.898438h-18.964843c-26.175781.03125-47.386719 21.242187-47.417969 47.417969v189.664062c.03125 26.175781 21.242188 47.386719 47.417969 47.417969h18.964843v37.933593c0 20.949219 16.984376 37.933594 37.933594 37.933594v28.449219c0 5.238281 4.246094 9.480469 9.480469 9.480469h341.402344c5.238281 0 9.484375-4.242188 9.484375-9.480469v-28.449219c20.949218 0 37.933594-16.984375 37.933594-37.933594v-37.933593h18.964843c26.175781-.03125 47.386719-21.242188 47.414063-47.417969v-189.664062c-.027344-26.175782-21.238282-47.386719-47.414063-47.417969zm-37.933593-56.898438v56.898438h-18.964844v-75.867188c10.472656 0 18.964844 8.492188 18.964844 18.96875zm-51.339844-56.898437h-24.523438v-24.527344zm-43.492188-37.9375v47.417968c0 5.238282 4.246094 9.484376 9.484375 9.484376h47.414063v94.832031h-322.433594v-151.734375zm-303.464844 94.835937c0-10.476562 8.492188-18.96875 18.964844-18.96875v75.867188h-18.964844zm0 379.332031v-75.867187h18.964844v94.832031c-10.472656 0-18.964844-8.488281-18.964844-18.964844zm0-94.832031v-56.902343h18.964844v56.902343zm37.929688 151.734375v-208.632812h322.433594v208.632812zm360.367188-151.734375h-18.964844v-56.902343h18.964844zm-18.964844 113.796875v-94.832031h18.964844v75.867187c0 10.476563-8.492188 18.964844-18.964844 18.964844zm85.351562-104.316406c0 15.714844-12.738281 28.453125-28.453125 28.453125h-18.964843v-104.316406c0-5.238281-4.246094-9.484375-9.484376-9.484375h-417.265624c-5.238282 0-9.484376 4.246094-9.484376 9.484375v104.316406h-18.964843c-15.714844 0-28.453125-12.738281-28.453125-28.453125v-189.664062c0-15.714844 12.738281-28.449219 28.453125-28.449219h474.164062c15.714844 0 28.449219 12.734375 28.449219 28.449219v189.664062zm0 0"/><path d="m407.78125 208.632812c-15.710938 0-28.449219 12.738282-28.449219 28.449219 0 15.714844 12.738281 28.449219 28.449219 28.449219 15.714844 0 28.453125-12.734375 28.453125-28.449219 0-15.710937-12.738281-28.449219-28.453125-28.449219zm0 37.933594c-5.234375 0-9.480469-4.246094-9.480469-9.484375 0-5.234375 4.246094-9.480469 9.480469-9.480469 5.238281 0 9.484375 4.246094 9.484375 9.480469 0 5.238281-4.246094 9.484375-9.484375 9.484375zm0 0"/><path d="m483.648438 208.632812c-15.710938 0-28.449219 12.738282-28.449219 28.449219 0 15.714844 12.738281 28.449219 28.449219 28.449219 15.714843 0 28.449218-12.734375 28.449218-28.449219 0-15.710937-12.734375-28.449219-28.449218-28.449219zm0 37.933594c-5.234376 0-9.480469-4.246094-9.480469-9.484375 0-5.234375 4.246093-9.480469 9.480469-9.480469 5.238281 0 9.484374 4.246094 9.484374 9.480469 0 5.238281-4.246093 9.484375-9.484374 9.484375zm0 0"/><path d="m341.402344 483.648438h75.863281v18.96875h-75.863281zm0 0"/><path d="m256.050781 445.71875h161.214844v18.964844h-161.214844zm0 0"/><path d="m151.734375 407.78125h265.53125v18.96875h-265.53125zm0 0"/><path d="m151.734375 445.71875h85.347656v18.964844h-85.347656zm0 0"/><path d="m151.734375 369.851562h161.214844v18.964844h-161.214844zm0 0"/><path d="m331.917969 369.851562h85.347656v18.964844h-85.347656zm0 0"/></svg>
