<svg width="32" height="32" viewBox="0 0 32 32" fill="none" xmlns="http://www.w3.org/2000/svg">
<g opacity="0.8" clip-path="url(#clip0)">
<path d="M8.65906 22.1315H7.56812V25.7963H8.65906V22.1315Z" fill="#463836"/>
<path d="M4.96116 25.6577L6.01611 25.9358L7.24562 21.2715L6.19067 20.9934L4.96116 25.6577Z" fill="#463836"/>
<path d="M9.15796 21.9109L10.2104 25.9337L11.2658 25.6576L10.2133 21.6348L9.15796 21.9109Z" fill="#463836"/>
<path d="M4.76011 25.796L3.02197 32H13.2039L11.4657 25.796H4.76011Z" fill="#8B7E7F"/>
<path d="M6.67506 18.7998C5.82586 19.7701 5.86387 21.2465 6.78894 22.1715C7.71401 23.0966 9.19033 23.1346 10.1607 22.2853L6.67506 18.7998Z" fill="#605353"/>
<path d="M8.28023 1.1554C2.8838 6.55182 2.8838 15.301 8.28023 20.6975C13.6767 26.0939 22.4259 26.0939 27.8223 20.6975L8.28023 1.1554Z" fill="#C2B8B9"/>
<path d="M27.822 20.6973C30.5202 17.9992 28.3329 11.4374 22.9366 6.04114C17.5404 0.644872 10.9786 -1.5424 8.28042 1.15574C5.58229 3.85387 7.76956 10.4157 13.1658 15.8119C18.5621 21.2082 25.1239 23.3955 27.822 20.6973Z" fill="#ECE7EA"/>
<path d="M17.6656 10.5408C17.4526 10.7538 17.4526 11.0992 17.6656 11.3123C17.8786 11.5253 18.2239 11.5253 18.4371 11.3123L25.3796 4.36971L24.6082 3.59827L17.6656 10.5408Z" fill="#D6CED1"/>
<path d="M12.5788 26.1817C12.4801 26.2804 12.3438 26.3415 12.1931 26.3415H4.03299C3.73174 26.3415 3.48755 26.0973 3.48755 25.7961C3.48755 25.4948 3.73174 25.2506 4.03299 25.2506H12.1932C12.4944 25.2506 12.7386 25.4948 12.7386 25.7961C12.7386 25.9467 12.6776 26.0831 12.5788 26.1817Z" fill="#605353"/>
<path d="M25.2509 4.81789C25.8534 4.81789 26.3418 4.32945 26.3418 3.72694C26.3418 3.12442 25.8534 2.63599 25.2509 2.63599C24.6483 2.63599 24.1599 3.12442 24.1599 3.72694C24.1599 4.32945 24.6483 4.81789 25.2509 4.81789Z" fill="#FFD24D"/>
</g>
<defs>
<clipPath id="clip0">
<rect width="32" height="32" fill="white"/>
</clipPath>
</defs>
</svg>
