<?xml version="1.0" encoding="UTF-8"?>
<!DOCTYPE svg  PUBLIC '-//W3C//DTD SVG 1.1//EN'  'http://www.w3.org/Graphics/SVG/1.1/DTD/svg11.dtd'>
<svg enable-background="new 0 0 455.034 455.034" version="1.1" viewBox="0 0 455.034 455.034" fill="#808080" xml:space="preserve" xmlns="http://www.w3.org/2000/svg">
	<path d="m250.68 441.84l-65.242-55.964c-6e-3 -5e-3 -0.012-0.011-0.019-0.016l-45.849-39.329v-63.298c0-4.142-3.357-7.5-7.5-7.5s-7.5 3.358-7.5 7.5v63.298l-111.11 95.309c-3.145 2.697-3.507 7.432-0.81 10.575 2.696 3.143 7.431 3.508 10.575 0.81l61.222-52.516 40.121 21.33v25.494c0 4.142 3.357 7.5 7.5 7.5s7.5-3.358 7.5-7.5v-25.493l40.122-21.33 61.221 52.515c1.415 1.214 3.151 1.808 4.879 1.808 2.113 0 4.213-0.888 5.696-2.617 2.7-3.144 2.338-7.879-0.807-10.576zm-154-51.619l27.895-23.928v38.758l-27.895-14.83zm42.895 14.83v-38.758l27.895 23.928-27.895 14.83z"/>
	<path d="m377.76 240.46h-4e-3c-4.142 2e-3 -7.498 3.361-7.496 7.503 8e-3 16.695-4.595 29.767-13.681 38.856l-3e-3 3e-3 -9e-3 9e-3c-15.832 15.821-43.947 18.068-79.166 6.329-36.979-12.327-76.664-38.434-111.74-73.513s-61.187-74.763-73.513-111.74c-11.743-35.228-9.492-63.346 6.338-79.176 15.829-15.829 43.947-18.08 79.175-6.338 36.98 12.327 76.665 38.434 111.74 73.513 27.482 27.482 49.584 57.944 63.916 88.094 1.778 3.742 6.255 5.331 9.993 3.554 3.741-1.778 5.332-6.253 3.554-9.994-15.059-31.679-38.177-63.583-66.855-92.261-36.694-36.694-78.462-64.088-117.61-77.136-40.897-13.633-74.467-10.096-94.525 9.961-7e-3 7e-3 -0.013 0.014-0.02 0.021l-7.051 7.05c-25.453 25.453-34.4 64.046-25.192 108.67 8.975 43.488 34.243 87.766 71.153 124.68 53.364 53.363 105.41 68.216 139.67 71.278 4.977 0.445 9.931 0.663 14.824 0.663 32.591 0 62.521-9.645 78.855-25.979l7.062-7.063c3e-3 -3e-3 6e-3 -5e-3 9e-3 -8e-3 11.835-11.837 18.086-28.944 18.076-49.472-1e-3 -4.142-3.358-7.497-7.499-7.497zm-109.99 74.415c-31.787-2.842-80.213-16.763-130.4-66.944-54.597-54.597-79.437-123.32-67.35-173.05 0.791 11.65 3.406 24.308 7.891 37.766 13.049 39.146 40.442 80.913 77.136 117.61 36.694 36.694 78.461 64.088 117.61 77.137 9.757 3.252 19.092 5.519 27.931 6.826-9.993 1.361-21.017 1.714-32.82 0.659z"/>
	<path d="m442 141.3l-33.588-33.587c-2.93-2.929-7.678-2.929-10.607 0s-2.929 7.678 0 10.606l1.769 1.768-15.91 15.909c-2.93 2.929-2.93 7.677-1e-3 10.606 1.465 1.465 3.384 2.197 5.304 2.197 1.919 0 3.839-0.732 5.303-2.197l15.911-15.91 15.911 15.91-104.87 104.86c-2.929 2.929-2.929 7.678 0 10.606 1.465 1.464 3.385 2.197 5.304 2.197s3.839-0.732 5.304-2.197l110.17-110.17c1.406-1.406 2.196-3.314 2.196-5.303s-0.79-3.897-2.196-5.303z"/>
</svg>
