<?xml version="1.0" encoding="UTF-8"?>
<svg enable-background="new 0 0 512 512" version="1.1" viewBox="0 0 512 512" fill="#808080" xml:space="preserve" xmlns="http://www.w3.org/2000/svg">
		<path d="m458.67 301.24h-405.33c-29.397 0-53.333 23.936-53.333 53.333v42.667c0 29.397 23.936 53.333 53.333 53.333h405.33c29.397 0 53.333-23.915 53.333-53.333v-42.667c1e-3 -29.397-23.935-53.333-53.332-53.333zm32 96c0 17.643-14.357 32-32 32h-405.33c-17.643 0-32-14.357-32-32v-42.667c0-17.643 14.357-32 32-32h405.33c17.643 0 32 14.357 32 32v42.667z"/>
		<path d="m373.33 151.91c-5.888 0-10.667 4.779-10.667 10.667v149.33c0 5.888 4.779 10.667 10.667 10.667s10.667-4.757 10.667-10.667v-149.33c0-5.888-4.779-10.666-10.667-10.666z"/>
		<circle cx="74.667" cy="375.91" r="10.667"/>
		<circle cx="138.67" cy="375.91" r="10.667"/>
		<circle cx="202.67" cy="375.91" r="10.667"/>
		<circle cx="266.67" cy="375.91" r="10.667"/>
		<path d="m437.33 365.24h-106.67c-5.888 0-10.667 4.779-10.667 10.667s4.779 10.667 10.667 10.667h106.67c5.888 0 10.667-4.779 10.667-10.667-1e-3 -5.888-4.78-10.667-10.668-10.667z"/>
		<path d="m341.33 162.57c0-8.555 3.328-16.576 9.365-22.635 4.16-4.16 4.16-10.923 0-15.083s-10.923-4.16-15.083 0c-10.068 10.07-15.615 23.468-15.615 37.718 0 14.251 5.547 27.648 15.616 37.717 2.091 2.069 4.821 3.115 7.552 3.115s5.461-1.024 7.531-3.115c4.16-4.16 4.16-10.923 0-15.083-6.038-6.058-9.366-14.079-9.366-22.634z"/>
		<path d="m411.05 124.86c-4.16-4.16-10.923-4.16-15.083 0s-4.16 10.923 0 15.083c6.037 6.059 9.365 14.08 9.365 22.635s-3.328 16.597-9.387 22.635c-4.16 4.16-4.16 10.923 0 15.083 2.091 2.069 4.821 3.115 7.552 3.115s5.461-1.024 7.552-3.115c10.069-10.069 15.616-23.467 15.616-37.717 1e-3 -14.252-5.546-27.65-15.615-37.719z"/>
		<path d="m320.51 109.8c4.16-4.16 4.16-10.923 0-15.083s-10.923-4.16-15.083 0c-37.419 37.44-37.419 98.325 0 135.76 2.091 2.069 4.821 3.115 7.552 3.115s5.461-1.045 7.531-3.115c4.16-4.16 4.16-10.923 0-15.083-29.099-29.119-29.099-76.479 0-105.6z"/>
		<path d="m441.22 94.712c-4.16-4.16-10.923-4.16-15.083 0s-4.16 10.923 0 15.083c29.099 29.12 29.099 76.48 0 105.6-4.16 4.16-4.16 10.923 0 15.083 2.091 2.069 4.821 3.115 7.552 3.115s5.44-1.045 7.531-3.115c37.419-37.441 37.419-98.326 0-135.77z"/>
		<path d="m290.35 79.629c4.16-4.16 4.16-10.923 0-15.083s-10.923-4.16-15.083 0c-54.059 54.059-54.059 142.04 0 196.1 2.091 2.069 4.821 3.115 7.552 3.115s5.461-1.045 7.531-3.115c4.16-4.16 4.16-10.923 0-15.083-45.76-45.738-45.76-120.17 0-165.93z"/>
		<path d="m471.38 64.547c-4.16-4.16-10.923-4.16-15.083 0s-4.16 10.923 0 15.083c45.76 45.739 45.76 120.17 0 165.93-4.16 4.16-4.16 10.923 0 15.083 2.091 2.069 4.821 3.115 7.552 3.115s5.461-1.045 7.531-3.115c54.059-54.06 54.059-142.04 0-196.1z"/>
</svg>
