<?xml version="1.0" encoding="UTF-8"?>
<svg width="40px" height="40px" version="1.1" viewBox="1 1 551.7325 551.7325" xmlns="http://www.w3.org/2000/svg">
  <path d="m54.785 161.04l53.098-53.098c1.6992-1.6172 4.3711-1.6172 6.0703 0 1.6719 1.6758 1.6719 4.3906 0 6.0703l-53.098 53.156 30.586 30.586 25.09-24.859c1.1758-2.0625 3.8008-2.7812 5.8594-1.6094 2.0625 1.1758 2.7852 3.7969 1.6133 5.8594-0.33984 0.60156-0.82031 1.1055-1.3984 1.4844l-25.031 25.031 30.586 30.59 25.031-25.031c1.7031-1.6172 4.3711-1.6172 6.0742 0 1.6719 1.6758 1.6719 4.3906 0 6.0703l-25.031 25.203 30.586 30.59 53.098-53.102c1.7031-1.6133 4.3711-1.6133 6.0742 0 1.6719 1.6797     1.6719 4.3945 0 6.0742l-53.098 53.098 30.645 30.586 25.031-25.027c1.6133-1.7383 4.3359-1.8359 6.0703-0.21484 1.7344 1.6172 1.832 4.3359 0.21094 6.0742-0.066406 0.074219-0.14062 0.14063-0.21094 0.21094l-25.09 25.031 30.59 30.586 25.031-25.031c1.6133-1.7344 4.3359-1.832 6.0703-0.21094 1.7344 1.6172 1.832 4.3359 0.21094 6.0742-0.066406 0.070312-0.14062 0.14062-0.21094 0.21094l-24.977 25.031 30.59 30.586 53.098-53.098c1.6172-1.7383 4.3359-1.832 6.0742-0.21484 1.7344 1.6172 1.832 4.3359 0.21094 6.0742-0.070312 0.074219-0.14453 0.14453-0.21094 0.21094l-53.102 53.098 30.59 30.59 25.031-25.031c1.6133-1.7344 4.3359-1.832 6.0703-0.21094 1.7383 1.6133 1.832 4.3359 0.21484 6.0703-0.070312 0.074219-0.14453 0.14453-0.21484 0.21094l-25.031 25.031 30.59 30.59 25.203-24.977c1.2891-1.9922 3.9492-2.5586 5.9375-1.2656 1.9961 1.2891 2.5625 3.9531 1.2656 5.9414-0.37109 0.57812-0.88281 1.0586-1.4805 1.3984l-25.031 25.031 30.758 30.645 53.098-53.098c1.7383-1.6172 4.457-1.5234 6.0742 0.21094 1.5352 1.6484 1.5352 4.2031 0 5.8594l-53.098 53.098 39.52 39.523c5.1406 5.0977 13.422 5.0977 18.562 0l87.695-87.695c5.0977-5.1367 5.0977-13.422 0-18.559l-415.34-415.23c-5.1367-5.0977-13.418-5.0977-18.559 0l-87.523 87.695c-5.0977 5.1406-5.0977 13.422 0 18.562zm35.742-94.512c6.5117 6.6719 6.5117 17.324 0 24-6.6758 6.5117-17.328 6.5117-24 0-6.5469-6.5586-6.543-17.184 0.015625-23.738 3.1836-3.1797 7.5078-4.9414 12.012-4.9023 4.4375-0.058594 8.7305 1.6055 11.973 4.6406z" fill="#ffdfc3"/>
  <path d="m72.598 84.453c3.2773 3.2773 8.582 3.2773 11.855 0 3.2773-3.2734 3.2773-8.5781 0-11.855-3.3164-3.1602-8.5391-3.1602-11.855 0-3.2773 3.2617-3.2891 8.5508-0.027344 11.828 0.003907 0.007813 0.015626 0.019531 0.027344 0.027344z" fill="#b295ff"/>
  <path d="m544.82 422.35l-415.17-415.17c-9.6133-9.5781-25.156-9.5781-34.77 0l-87.695 87.695c-9.5781 9.6133-9.5781 25.156 0 34.77l415.17 415.17c9.6133 9.5781 25.156 9.5781 34.77 0l87.695-87.695c9.5781-9.6094 9.5781-25.156 0-34.77zm-10.137 24.633l-87.695 87.695c-4.0156 3.9688-10.48 3.9688-14.492 0l-37.461-37.461 51.094-51.094c2.8008-2.8008 2.8008-7.3398 0-10.141-2.8047-2.8008-7.3398-2.8008-10.141 0l-51.152 51.094-26.578-26.578 22.914-22.91c2.8008-2.8008 2.8008-7.3398 0-10.141s-7.3398-2.8008-10.141 0l-22.91 22.914-26.293-26.523 22.91-22.91c2.8672-2.8203 2.9062-7.418 0.085937-10.281-2.8164-2.8672-7.4141-2.9062-10.281-0.085938l-22.91 22.91-26.578-26.578 51.094-51.094c2.8008-2.8008 2.8008-7.3359 0-10.137-2.8008-2.8008-7.3398-2.8008-10.141 0l-51.152 51.379-26.578-26.578 22.914-22.91c2.8008-2.8008 2.8008-7.3398 0-10.141-2.8008-2.8008-7.3359-2.8008-10.141 0l-22.91 22.914-26.52-26.523 22.91-22.91c2.8203-2.7852 2.8398-7.3203 0.058594-10.141-2.7852-2.8164-7.3203-2.8398-10.141-0.054687l-22.91 22.91-26.578-26.465 51.094-51.094c2.8008-2.8008 2.8008-7.3359 0-10.137-2.8008-2.8008-7.3398-2.8008-10.141 0l-51.094 51.094-26.293-26.52 22.914-22.914c2.8477-2.8281 2.8594-7.4336 0.027344-10.281-2.8281-2.8477-7.4336-2.8594-10.281-0.03125l-22.91 22.914-26.578-26.578 22.91-22.914c2.8008-2.8008 2.8008-7.3359 0-10.137s-7.3359-2.8008-10.137 0l-22.914 22.91-26.633-26.289 51.094-51.094c2.8203-2.8008 2.8281-7.3477 0.03125-10.168-2.8047-2.8164-7.3516-2.8281-10.168-0.027344l-51.094 51.094-37.461-37.461c-3.9727-4.0156-3.9727-10.477 0-14.492l87.695-87.699c3.9922-4.0117 10.48-4.0352 14.5-0.050781 0.015625 0.019531 0.03125 0.035157 0.050781 0.050781l415.17 415.17c3.9688 4.0117 3.9688 10.477 0 14.492h-0.058593z" fill="#513144"/>
  <path d="m64.52 64.52c-7.7266 7.75-7.707 20.301 0.042969 28.027 7.75 7.7305 20.297 7.7109 28.027-0.039063 7.7148-7.7305 7.7148-20.254 0-27.988-7.8594-7.4883-20.215-7.4883-28.07 0zm17.93 17.93c-2.1523 2.3203-5.7734 2.457-8.0938 0.30469-2.3203-2.1562-2.457-5.7734-0.30469-8.0938 2.1562-2.3203 5.7773-2.457 8.0977-0.30469 0.10156 0.097656 0.20312 0.19922 0.30078 0.30469 2.0391 2.1953 2.0391 5.5898 0 7.7891z" fill="#513144"/>
</svg>
