<svg width="34" height="34" viewBox="0 0 34 34" fill="none" xmlns="http://www.w3.org/2000/svg">
<rect width="34" height="34" rx="3" fill="#21953b"/>
<g clip-path="url(#clip0)">
<path d="M19.5715 11.4286H17.8572V14.2857H19.5715V11.4286Z" fill="white"/>
<path d="M21.404 10H10.1429V24H23.8572V12.4531L21.404 10ZM13 10.5714H20.4286V15.1429H13V10.5714ZM21.2857 23.4286H12.4286V17.4286H21.2857V23.4286Z" fill="white"/>
<path d="M13.8572 19.1428H15.8572C16.0152 19.1428 16.1429 19.0151 16.1429 18.8571C16.1429 18.6991 16.0152 18.5714 15.8572 18.5714H13.8572C13.6992 18.5714 13.5715 18.6991 13.5715 18.8571C13.5715 19.0151 13.6992 19.1428 13.8572 19.1428Z" fill="white"/>
<path d="M13.8572 20.2857H16.7143C16.8723 20.2857 17 20.1579 17 19.9999C17 19.8419 16.8723 19.7142 16.7143 19.7142H13.8572C13.6992 19.7142 13.5715 19.8419 13.5715 19.9999C13.5715 20.1579 13.6992 20.2857 13.8572 20.2857Z" fill="white"/>
<path d="M17.5715 20.2858C17.6486 20.2858 17.7201 20.2543 17.7743 20.2029C17.8258 20.1486 17.8572 20.0743 17.8572 20C17.8572 19.9258 17.8258 19.8512 17.7743 19.7972C17.6686 19.6915 17.4772 19.6915 17.3715 19.7972C17.3172 19.8512 17.2858 19.9226 17.2858 20C17.2858 20.0772 17.3169 20.1486 17.3686 20.2029C17.4226 20.2543 17.4941 20.2858 17.5715 20.2858Z" fill="white"/>
</g>
<defs>
<clipPath id="clip0">
<rect width="14" height="14" fill="white" transform="translate(10 10)"/>
</clipPath>
</defs>
</svg>
