<?xml version="1.0" encoding="UTF-8"?>
<svg enable-background="new 0 0 470.001 470.001" fill="#808080" version="1.1" viewBox="0 0 470.001 470.001" xml:space="preserve" xmlns="http://www.w3.org/2000/svg">
			<path d="m237.5 172.5v40c0 4.142 3.357 7.5 7.5 7.5s7.5-3.358 7.5-7.5v-40c0-4.142-3.357-7.5-7.5-7.5s-7.5 3.358-7.5 7.5z"/>
			<path d="m197.5 172.5v40c0 4.142 3.358 7.5 7.5 7.5s7.5-3.358 7.5-7.5v-40c0-4.142-3.358-7.5-7.5-7.5s-7.5 3.358-7.5 7.5z"/>
			<path d="m277.5 172.5v40c0 4.142 3.357 7.5 7.5 7.5s7.5-3.358 7.5-7.5v-40c0-4.142-3.357-7.5-7.5-7.5s-7.5 3.358-7.5 7.5z"/>
			<circle cx="327.92" cy="367.5" r="7.5"/>
			<circle cx="363.75" cy="367.5" r="7.5"/>
			<path d="m408.75 345c-12.406 0-22.5 10.093-22.5 22.5s10.094 22.5 22.5 22.5 22.5-10.093 22.5-22.5-10.093-22.5-22.5-22.5zm0 30c-4.136 0-7.5-3.364-7.5-7.5s3.364-7.5 7.5-7.5 7.5 3.364 7.5 7.5-3.364 7.5-7.5 7.5z"/>
			<path d="m422.5 235h-380.06c0.035-0.418 0.064-0.838 0.064-1.266 0-2.762-0.764-5.344-2.072-7.569l332.9-192.2c3.587-2.071 4.816-6.658 2.745-10.245-8.447-14.631-24.253-23.719-41.251-23.719-8.286 0-16.459 2.19-23.635 6.333l-307.44 177.5c-3.587 2.071-4.816 6.658-2.745 10.245l16.471 28.529c-3.047 2.747-4.976 6.711-4.976 11.127 0 5.538 3.024 10.372 7.5 12.97v175.8c0 4.142 3.358 7.5 7.5 7.5h7.5v32.5c0 4.142 3.358 7.5 7.5 7.5h405c4.143 0 7.5-3.358 7.5-7.5v-32.5h7.5c4.143 0 7.5-3.358 7.5-7.5v-140c0-26.191-21.308-47.499-47.5-47.499zm-392.26-20.276l-12.5-21.651 300.94-173.75c4.898-2.828 10.478-4.323 16.135-4.323 9.081 0 17.66 3.772 23.738 10.17l-328.32 189.55zm424.76 200.28h-342.5c-4.142 0-7.5 3.358-7.5 7.5s3.358 7.5 7.5 7.5h327.5v25h-390v-25h32.5c4.142 0 7.5-3.358 7.5-7.5s-3.358-7.5-7.5-7.5h-47.5v-165h387.5c17.921 0 32.5 14.58 32.5 32.5v132.5z"/>
</svg>
