<svg width="48" height="22" viewBox="0 0 48 22" fill="none" xmlns="http://www.w3.org/2000/svg">
<path d="M46.4523 19.2152H44.0583V21.3038C44.0583 21.6883 43.7491 22 43.3677 22H3.77511C3.39373 22 3.08454 21.6883 3.08454 21.3038V19.2152H0.690569C0.309191 19.2152 0 18.9035 0 18.519V8.02954C0 7.64505 0.309191 7.33333 0.690569 7.33333C1.07195 7.33333 1.38114 7.64505 1.38114 8.02954V17.8228H5.8622C6.24357 17.8228 6.55276 18.1345 6.55276 18.519C6.55276 18.9035 6.24357 19.2152 5.8622 19.2152H4.46568V20.6076H42.6772V19.2152H8.83929C8.45791 19.2152 8.14872 18.9035 8.14872 18.519C8.14872 18.1345 8.45791 17.8228 8.83929 17.8228H45.7617V4.17721H41.273C40.8916 4.17721 40.5824 3.8655 40.5824 3.48101C40.5824 3.09652 40.8916 2.78481 41.273 2.78481H42.6772V1.3924H4.46568V2.78481H38.2806C38.6619 2.78481 38.9711 3.09652 38.9711 3.48101C38.9711 3.8655 38.6619 4.17721 38.2806 4.17721H1.38114V5.05907C1.38114 5.44356 1.07195 5.75527 0.690569 5.75527C0.309191 5.75527 0 5.44356 0 5.05907V3.48101C0 3.09652 0.309191 2.78481 0.690569 2.78481H3.08454V0.696202C3.08454 0.311712 3.39373 -7.00355e-07 3.77511 -7.00355e-07H43.3677C43.7491 -7.00355e-07 44.0583 0.311712 44.0583 0.696202V2.78481H46.4523C46.8337 2.78481 47.1429 3.09652 47.1429 3.48101V18.519C47.1429 18.9035 46.8337 19.2152 46.4523 19.2152Z" fill="#9A9A9A"/>
<path d="M26.6163 14.6667H20.3551C19.9737 14.6667 19.6646 14.355 19.6646 13.9705V9.70211C19.6646 9.31762 19.9737 9.00591 20.3551 9.00591H20.8852V8.02956C20.8853 7.64507 21.1945 7.33335 21.5759 7.33335H25.3956C25.777 7.33335 26.0862 7.64507 26.0862 8.02956V9.00591H26.6163C26.9977 9.00591 27.3068 9.31762 27.3068 9.70211V13.9705C27.3068 14.355 26.9977 14.6667 26.6163 14.6667ZM25.9258 10.3983H25.3957C25.0143 10.3983 24.7052 10.0866 24.7052 9.70211V8.72576H22.2665V9.70211C22.2665 10.0866 21.9573 10.3983 21.576 10.3983H21.0459V13.2743H25.9258V10.3983Z" fill="#9A9A9A"/>
<path d="M18.0706 14.6667H11.8095C11.4281 14.6667 11.1189 14.355 11.1189 13.9705V9.70211C11.1189 9.31762 11.4281 9.00591 11.8095 9.00591H12.3395V8.02956C12.3395 7.64507 12.6487 7.33335 13.0301 7.33335H16.85C17.2314 7.33335 17.5405 7.64507 17.5405 8.02956V9.00591H18.0706C18.452 9.00591 18.7612 9.31762 18.7612 9.70211V13.9705C18.7612 14.355 18.452 14.6667 18.0706 14.6667ZM17.3801 10.3983H16.85C16.4686 10.3983 16.1594 10.0866 16.1594 9.70211V8.72576H13.7207V9.70211C13.7207 10.0866 13.4115 10.3983 13.0301 10.3983H12.5V13.2743H17.3801V10.3983Z" fill="#9A9A9A"/>
<path d="M35.1531 14.6667H28.892C28.5106 14.6667 28.2014 14.355 28.2014 13.9705V9.70211C28.2014 9.31762 28.5106 9.00591 28.892 9.00591H29.4221V8.02956C29.4221 7.64507 29.7313 7.33335 30.1126 7.33335H33.9325C34.3139 7.33335 34.6231 7.64507 34.6231 8.02956V9.00591H35.1531C35.5345 9.00591 35.8437 9.31762 35.8437 9.70211V13.9705C35.8437 14.355 35.5345 14.6667 35.1531 14.6667ZM34.4626 10.3983H33.9325C33.5511 10.3983 33.2419 10.0866 33.2419 9.70211V8.72576H30.8032V9.70211C30.8032 10.0866 30.494 10.3983 30.1126 10.3983H29.5826V13.2743H34.4626V10.3983Z" fill="#9A9A9A"/>
<path d="M43.69 14.6667H37.4289C37.0475 14.6667 36.7383 14.355 36.7383 13.9705V9.70211C36.7383 9.31762 37.0475 9.00591 37.4289 9.00591H37.9589V8.02956C37.959 7.64507 38.2682 7.33335 38.6496 7.33335H42.4694C42.8507 7.33335 43.1599 7.64507 43.1599 8.02956V9.00591H43.69C44.0714 9.00591 44.3806 9.31762 44.3806 9.70211V13.9705C44.3806 14.355 44.0714 14.6667 43.69 14.6667ZM42.9995 10.3983H42.4695C42.0881 10.3983 41.7789 10.0866 41.7789 9.70211V8.72576H39.3403V9.70211C39.3403 10.0866 39.0311 10.3983 38.6497 10.3983H38.1195V13.2743H42.9995V10.3983Z" fill="#9A9A9A"/>
<path d="M9.01411 14.5327H3.79994C3.41857 14.5327 3.10938 14.2209 3.10938 13.8365C3.10938 13.452 3.41857 13.1402 3.79994 13.1402H9.01411C9.39549 13.1402 9.70468 13.452 9.70468 13.8365C9.70468 14.2209 9.39549 14.5327 9.01411 14.5327Z" fill="#9A9A9A"/>
<path d="M9.01411 12.6417H3.79994C3.41857 12.6417 3.10938 12.33 3.10938 11.9455C3.10938 11.561 3.41857 11.2493 3.79994 11.2493H9.01411C9.39549 11.2493 9.70468 11.561 9.70468 11.9455C9.70468 12.33 9.39549 12.6417 9.01411 12.6417Z" fill="#9A9A9A"/>
<path d="M9.01411 10.7507H3.79994C3.41857 10.7507 3.10938 10.439 3.10938 10.0545C3.10938 9.66998 3.41857 9.35827 3.79994 9.35827H9.01411C9.39549 9.35827 9.70468 9.66998 9.70468 10.0545C9.70468 10.439 9.39549 10.7507 9.01411 10.7507Z" fill="#9A9A9A"/>
<path d="M9.01411 8.85974H3.79994C3.41857 8.85974 3.10938 8.54803 3.10938 8.16354C3.10938 7.77905 3.41857 7.46734 3.79994 7.46734H9.01411C9.39549 7.46734 9.70468 7.77905 9.70468 8.16354C9.70468 8.54803 9.39549 8.85974 9.01411 8.85974Z" fill="#9A9A9A"/>
</svg>
