<svg width="40" height="40" viewBox="0 0 40 40" fill="none" xmlns="http://www.w3.org/2000/svg">
<rect width="40px" height="40px" rx="3" fill="#E46E3B"/>
<path d="M25.664 22.8459C25.5946 22.7768 25.56 22.6881 25.56 22.5801C25.56 22.4723 25.5946 22.3836 25.664 22.314C25.7334 22.2449 25.8221 22.2103 25.9299 22.2103H29.63C29.738 22.2103 29.8266 22.2449 29.896 22.314C29.9652 22.3833 30 22.472 30 22.5801C30 22.6881 29.9654 22.7768 29.896 22.8459C29.8266 22.9152 29.7379 22.9499 29.63 22.9499H25.9299C25.8219 22.9501 25.7334 22.9154 25.664 22.8459Z" fill="white"/>
<path d="M17.42 14.4399C17.3119 14.4399 17.2232 14.4053 17.1542 14.3359C17.0847 14.2666 17.05 14.1779 17.05 14.07V10.37C17.05 10.2623 17.0847 10.1735 17.1542 10.1041C17.2232 10.0348 17.312 10 17.42 10C17.5278 10 17.6166 10.0348 17.6858 10.1041C17.7551 10.1735 17.7897 10.2621 17.7897 10.37V14.07C17.7897 14.1779 17.7551 14.2666 17.6858 14.3359C17.6162 14.4053 17.5275 14.4399 17.42 14.4399Z" fill="white"/>
<path d="M25.19 24.0604C25.2903 24.0604 25.3788 24.0951 25.4559 24.1642L28.4159 27.1242C28.4853 27.2012 28.5199 27.2899 28.5199 27.3901C28.5199 27.4903 28.4853 27.579 28.4159 27.656C28.331 27.7252 28.2424 27.7601 28.1499 27.7601C28.0497 27.7601 27.961 27.7252 27.884 27.656L24.924 24.6961C24.8546 24.6191 24.82 24.5303 24.82 24.43C24.82 24.3299 24.8546 24.2413 24.924 24.1642C25.001 24.0951 25.0898 24.0604 25.19 24.0604Z" fill="white"/>
<path d="M15.5698 15.1799C15.4774 15.1799 15.3887 15.1453 15.3037 15.076L12.3438 12.116C12.2747 12.0389 12.2401 11.9503 12.2401 11.8501C12.2401 11.7498 12.2747 11.6611 12.3438 11.5841C12.4212 11.5149 12.5096 11.4801 12.6099 11.4801C12.71 11.4801 12.7986 11.5149 12.8757 11.5841L15.8356 14.5441C15.9048 14.6212 15.9397 14.7099 15.9397 14.8101C15.9397 14.9103 15.9048 14.9988 15.8356 15.076C15.7508 15.1453 15.6621 15.1799 15.5698 15.1799Z" fill="white"/>
<path d="M15.801 17.8164C15.963 17.6544 16.1788 17.4926 16.4485 17.3307L16.6566 20.0943L13.4884 23.2738C13.2727 23.4896 13.165 23.752 13.165 24.0602C13.165 24.3608 13.2728 24.6191 13.4884 24.8349L15.1885 26.5231C15.3969 26.7316 15.6586 26.8336 15.9748 26.8296C16.2911 26.8255 16.5528 26.7199 16.7609 26.5115L19.9176 23.3435L22.681 23.5518C22.519 23.8213 22.3573 24.0373 22.1954 24.1992L18.3333 28.0726C17.6934 28.7279 16.9075 29.0555 15.9748 29.0555C15.0496 29.0555 14.2676 28.7356 13.6276 28.0959L11.9276 26.4077C11.2727 25.7678 10.9447 24.9856 10.9447 24.0604C10.9447 23.1508 11.2685 22.3645 11.916 21.7015L15.801 17.8164Z" fill="white"/>
<path d="M10.8638 16.3942C10.9331 16.325 11.0218 16.2903 11.1296 16.2903H14.8297C14.9375 16.2903 15.0263 16.325 15.0955 16.3942C15.165 16.4636 15.1996 16.5523 15.1996 16.6602C15.1996 16.7681 15.165 16.8568 15.0955 16.9261C15.0262 16.9955 14.9375 17.0301 14.8297 17.0301H11.1296C11.0218 17.0301 10.933 16.9955 10.8638 16.9261C10.7946 16.8568 10.76 16.7681 10.76 16.6602C10.76 16.5523 10.7946 16.4636 10.8638 16.3942Z" fill="white"/>
<path d="M25.5716 12.7173C25.3479 12.5092 25.086 12.4053 24.7852 12.4053C24.477 12.4053 24.2149 12.5131 23.999 12.729L20.8424 15.8971L18.0791 15.6889C18.2411 15.4191 18.4027 15.2032 18.5647 15.0414L22.4265 11.168C23.0663 10.5128 23.8526 10.1851 24.7852 10.1851C25.7103 10.1851 26.4927 10.5051 27.1325 11.1449L28.8322 12.833C29.4874 13.4729 29.8149 14.2552 29.8149 15.1802C29.8149 16.0899 29.4911 16.8762 28.8437 17.539L24.9587 21.4241C24.7969 21.5861 24.5811 21.7479 24.3113 21.9097L24.1032 19.1347L27.2714 15.9666C27.4871 15.7507 27.595 15.4887 27.595 15.1802C27.595 14.8797 27.4872 14.6215 27.2714 14.4056L25.5716 12.7173Z" fill="white"/>
<path d="M23.3399 24.8002C23.4479 24.8002 23.5365 24.8349 23.6058 24.904C23.6751 24.9733 23.7098 25.062 23.7098 25.1701V28.87C23.7098 28.9781 23.6753 29.0665 23.6058 29.1361C23.5365 29.2052 23.4479 29.24 23.3399 29.24C23.2319 29.24 23.1433 29.2052 23.0739 29.1361C23.0046 29.0665 22.9699 28.9781 22.9699 28.87V25.1701C22.9699 25.0623 23.0046 24.9736 23.0739 24.904C23.1434 24.8349 23.2321 24.8002 23.3399 24.8002Z" fill="white"/>
</svg>
