<svg width="22" height="32" viewBox="0 0 22 32" fill="none" xmlns="http://www.w3.org/2000/svg">
<path d="M7.55053 32H3.55859C3.41634 32 3.30103 31.8847 3.30103 31.7424V25.0785H7.80809V31.7425C7.80809 31.8847 7.69278 32 7.55053 32Z" fill="#63D4DB"/>
<path d="M5.87646 25.0785V32H7.55053C7.69278 32 7.80809 31.8847 7.80809 31.7424V25.0785H5.87646Z" fill="#47B8C4"/>
<path d="M17.6914 32H13.6995C13.5572 32 13.4419 31.8847 13.4419 31.7424V25.0785H17.949V31.7425C17.949 31.8847 17.8336 32 17.6914 32Z" fill="#63D4DB"/>
<path d="M16.0173 25.0785V32H17.6914C17.8336 32 17.949 31.8847 17.949 31.7424V25.0785H16.0173Z" fill="#47B8C4"/>
<path d="M19.5759 30.1328H1.67413C0.749563 30.1328 0 29.3833 0 28.4586V1.67412C0 0.749562 0.749563 0 1.67413 0H19.5758C20.5004 0 21.25 0.749562 21.25 1.67412V28.4586C21.25 29.3833 20.5004 30.1328 19.5759 30.1328Z" fill="#999999"/>
<path d="M19.5759 0H17.644C18.5687 0 19.3183 0.7495 19.3183 1.67406V28.4587C19.3183 29.3833 18.5687 30.1328 17.644 30.1328H19.5759C20.5005 30.1328 21.2501 29.3833 21.2501 28.4587V1.67406C21.2501 0.7495 20.5005 0 19.5759 0Z" fill="#8A8A8A"/>
<path d="M6.89063 22.167H14.3274C14.5863 22.167 14.7961 21.9572 14.7961 21.6982C14.7961 21.4393 14.5863 21.2295 14.3274 21.2295H6.89063C6.63169 21.2295 6.42188 21.4393 6.42188 21.6982C6.42188 21.9572 6.63169 22.167 6.89063 22.167Z" fill="#E8E5D8"/>
<path d="M14.3594 23.161H6.92261C6.66367 23.161 6.45386 23.3708 6.45386 23.6298C6.45386 23.8887 6.66367 24.0985 6.92261 24.0985H14.3594C14.6183 24.0985 14.8281 23.8887 14.8281 23.6298C14.8281 23.3708 14.6183 23.161 14.3594 23.161Z" fill="#E8E5D8"/>
<path d="M21.25 7.30785H17.7727C17.6304 7.30785 17.5151 7.19253 17.5151 7.05028V5.63378C17.5151 5.49153 17.6304 5.37622 17.7727 5.37622H21.25V7.30785Z" fill="#E8E5D8"/>
<path d="M21.25 11.7504H17.7727C17.6304 11.7504 17.5151 11.6351 17.5151 11.4928V10.0764C17.5151 9.93416 17.6304 9.81885 17.7727 9.81885H21.25V11.7504Z" fill="#E8E5D8"/>
<path d="M21.25 16.1932H17.7727C17.6304 16.1932 17.5151 16.0778 17.5151 15.9356V14.5192C17.5151 14.3769 17.6304 14.2616 17.7727 14.2616H21.25V16.1932Z" fill="#E8E5D8"/>
<path d="M21.2502 5.37622H19.3184V7.30778H21.2502V5.37622Z" fill="#DED9C6"/>
<path d="M21.2502 9.81885H19.3184V11.7504H21.2502V9.81885Z" fill="#DED9C6"/>
<path d="M21.2502 14.2616H19.3184V16.1932H21.2502V14.2616Z" fill="#DED9C6"/>
<path d="M21.25 20.6358H17.7727C17.6304 20.6358 17.5151 20.5205 17.5151 20.3782V18.9618C17.5151 18.8195 17.6304 18.7042 17.7727 18.7042H21.25V20.6358Z" fill="#E8E5D8"/>
<path d="M21.2502 18.7042H19.3184V20.6358H21.2502V18.7042Z" fill="#DED9C6"/>
<path d="M21.25 25.0785H17.7727C17.6304 25.0785 17.5151 24.9632 17.5151 24.821V23.4045C17.5151 23.2623 17.6304 23.147 17.7727 23.147H21.25V25.0785Z" fill="#E8E5D8"/>
<path d="M21.2502 23.147H19.3184V25.0785H21.2502V23.147Z" fill="#DED9C6"/>
<path d="M3.47731 7.30785H0V5.37622H3.47731C3.61956 5.37622 3.73487 5.49153 3.73487 5.63378V7.05022C3.73487 7.19253 3.61956 7.30785 3.47731 7.30785Z" fill="#E8E5D8"/>
<path d="M3.47731 11.7504H0V9.81885H3.47731C3.61956 9.81885 3.73487 9.93416 3.73487 10.0764V11.4928C3.73487 11.6351 3.61956 11.7504 3.47731 11.7504Z" fill="#E8E5D8"/>
<path d="M3.47731 16.1932H0V14.2616H3.47731C3.61956 14.2616 3.73487 14.3769 3.73487 14.5192V15.9356C3.73487 16.0778 3.61956 16.1932 3.47731 16.1932Z" fill="#E8E5D8"/>
<path d="M3.47731 20.6358H0V18.7042H3.47731C3.61956 18.7042 3.73487 18.8195 3.73487 18.9618V20.3782C3.73487 20.5205 3.61956 20.6358 3.47731 20.6358Z" fill="#E8E5D8"/>
<path d="M3.47731 25.0786H0V23.147H3.47731C3.61956 23.147 3.73487 23.2623 3.73487 23.4045V24.821C3.73487 24.9633 3.61956 25.0786 3.47731 25.0786Z" fill="#E8E5D8"/>
<path d="M7.90734 8.59558H13.3425C13.4507 8.59558 13.5221 8.70746 13.4759 8.80471L11.7684 12.4005C11.7453 12.4492 11.7509 12.5066 11.7831 12.55L12.7045 13.7923C12.7403 13.8405 12.7429 13.9054 12.7112 13.9563L9.59828 18.9565C9.51803 19.0853 9.31766 19.0233 9.32541 18.8719L9.51409 15.1854C9.51628 15.1425 9.49947 15.1009 9.46803 15.0714L8.23065 13.9105C8.20422 13.8857 8.18797 13.8521 8.1849 13.8161L7.76028 8.75439C7.75315 8.66889 7.82103 8.59558 7.90734 8.59558Z" fill="#D6C490"/>
</svg>
