<?xml version="1.0" encoding="UTF-8"?>
<svg enable-background="new 0 0 500 500" version="1.1" viewBox="0 0 500 500" xml:space="preserve" xmlns="http://www.w3.org/2000/svg">
	<g fill="#808080">
		<path d="m36 387c-19 0-36 16-36 35s17 36 36 36 35-17 35-36-16-35-35-35z"/>
		<path d="m36 215c-19 0-36 16-36 35s17 35 36 35 35-16 35-35-16-35-35-35z"/>
		<path d="m164 110h303c18 0 33-14 33-32s-15-33-33-33h-303c-18 0-33 15-33 33s15 32 33 32z"/>
		<path d="M36,42C17,42,0,59,0,78s17,35,36,35s35-16,35-35S55,42,36,42z"/>
		<path d="m467 217h-303c-18 0-33 15-33 33s15 33 33 33h303c18 0 33-15 33-33s-15-33-33-33z"/>
		<path d="m467 389h-303c-18 0-33 15-33 33s15 33 33 33h303c18 0 33-15 33-33s-15-33-33-33z"/>
	</g>
</svg>
