<svg width="17" height="18" viewBox="0 0 17 18" fill="none" xmlns="http://www.w3.org/2000/svg">
<path d="M7.04161 13.0832C10.3783 13.0832 13.0832 10.3783 13.0832 7.04161C13.0832 3.70492 10.3783 1 7.04161 1C3.70492 1 1 3.70492 1 7.04161C1 10.3783 3.70492 13.0832 7.04161 13.0832Z" fill="#1AB394" stroke="#556080" stroke-width="2" stroke-miterlimit="10"/>
<path d="M9.15618 7.34366H4.92705C4.7603 7.34366 4.62497 7.20833 4.62497 7.04158C4.62497 6.87483 4.7603 6.7395 4.92705 6.7395H9.15618C9.32293 6.7395 9.45826 6.87483 9.45826 7.04158C9.45826 7.20833 9.32293 7.34366 9.15618 7.34366Z" fill="white"/>
<path d="M11.1058 11.5118L15.8019 16.3959" stroke="#556080" stroke-width="2" stroke-miterlimit="10" stroke-linecap="round"/>
<path d="M7.04161 9.45829C6.87486 9.45829 6.73953 9.32296 6.73953 9.15621V4.92708C6.73953 4.76033 6.87486 4.625 7.04161 4.625C7.20836 4.625 7.34369 4.76033 7.34369 4.92708V9.15621C7.34369 9.32296 7.20836 9.45829 7.04161 9.45829Z" fill="white"/>
</svg>
