<svg width="17" height="18" viewBox="0 0 17 18" fill="none" xmlns="http://www.w3.org/2000/svg">
<path d="M7.04161 13.0832C10.3783 13.0832 13.0832 10.3783 13.0832 7.04161C13.0832 3.70492 10.3783 1 7.04161 1C3.70492 1 1 3.70492 1 7.04161C1 10.3783 3.70492 13.0832 7.04161 13.0832Z" fill="#1AB394" stroke="#556080" stroke-width="2" stroke-miterlimit="10"/>
<path d="M9.15621 7.34366H4.92708C4.76033 7.34366 4.625 7.20833 4.625 7.04158C4.625 6.87483 4.76033 6.7395 4.92708 6.7395H9.15621C9.32296 6.7395 9.45829 6.87483 9.45829 7.04158C9.45829 7.20833 9.32296 7.34366 9.15621 7.34366Z" fill="white"/>
<path d="M11.1058 11.5118L15.802 16.3959" stroke="#556080" stroke-width="2" stroke-miterlimit="10" stroke-linecap="round"/>
</svg>
